<svg width="142" height="142" viewBox="0 0 142 142" fill="none" xmlns="http://www.w3.org/2000/svg">
    <path fill-rule="evenodd" clip-rule="evenodd" d="M13.0752 100.629C11.7043 102.568 8.84008 102.211 7.84651 100.056C3.77239 91.2149 1.5 81.3728 1.5 71C1.5 67.5315 1.75408 64.1224 2.24464 60.7902C2.59015 58.4432 5.20351 57.3553 6.37236 59.4195C7.68543 61.7385 8.43841 65.3746 7.26665 70.8428C5.72649 78.0302 7.13376 82.6067 9.30425 86.0269C10.3236 87.6332 11.5031 88.9704 12.5592 90.1677L12.7108 90.3396C13.8245 91.6035 14.7553 92.6877 15.3292 93.8354C15.6924 94.5618 15.6436 95.5673 15.193 96.8157C14.7492 98.0451 13.9641 99.3727 13.0752 100.629ZM13.6806 102.341C12.0811 104.453 11.6798 107.328 13.1505 109.532C25.611 128.202 46.8694 140.5 71 140.5C83.3244 140.5 94.8996 137.292 104.936 131.666C107.467 130.247 107.648 126.742 106.288 124.178C104.799 121.371 104.005 117.685 105.817 113.692C107.032 111.013 108.875 108.213 110.804 105.482C111.509 104.484 112.222 103.5 112.924 102.531C114.163 100.821 115.367 99.1597 116.423 97.5645C118.083 95.0577 119.282 92.8487 119.641 91.049C119.817 90.1645 119.778 89.4321 119.536 88.8281C119.298 88.2343 118.833 87.6869 118.01 87.2193C116.568 86.4001 114.611 86.2095 111.939 86.6638C109.272 87.1174 105.997 88.1951 102.001 89.787C97.6999 91.5007 92.6449 93.7751 86.6982 96.4507L86.6977 96.4509C81.5627 98.7614 75.7628 101.371 69.2092 104.177C62.0603 107.238 56.0994 107.68 51.6252 106.343C47.1319 105.001 44.1927 101.875 43.1554 97.9702C41.0816 90.1631 46.6374 79.7618 61.0601 74.4365C71.295 70.6574 78.3306 65.7184 82.3262 60.7987C86.3291 55.8701 87.2096 51.0769 85.462 47.4267C83.7058 43.7585 79.1416 40.9124 71.5125 40.2452C63.9037 39.5798 53.3931 41.1064 40.0538 46.0251C34.6503 48.0176 30.0975 48.9432 26.4156 49.0916C22.7428 49.2397 19.8873 48.6158 17.9278 47.4527C15.9481 46.2776 14.8722 44.5346 14.9042 42.5629C14.9357 40.627 16.0329 38.6472 18.0088 36.9348C19.996 35.2125 22.8707 34.0142 25.6742 32.8912C25.8698 32.8129 26.0651 32.7349 26.26 32.6571L26.26 32.6571L26.2601 32.657C28.9178 31.5956 31.4888 30.5688 33.4449 29.1995C35.5076 27.7556 36.7758 26.0096 36.7345 23.5216C36.7106 22.0862 36.2522 20.3536 35.1829 18.2397C33.7325 15.3725 29.9939 14.7888 27.4895 16.8019C16.9687 25.2589 8.96213 36.7163 4.76864 49.8753C3.88924 52.6348 5.54121 55.5052 7.18384 57.8906C7.35537 58.1397 7.52045 58.4029 7.67764 58.6805C9.21457 61.3948 9.96159 65.4254 8.73335 71.1572C7.27351 77.9698 8.61624 82.1433 10.5707 85.2231C11.5252 86.7271 12.6343 87.9849 13.7032 89.1971L13.8361 89.3479C14.9255 90.584 15.9947 91.8123 16.6708 93.1646C17.3076 94.4382 17.1064 95.9327 16.6039 97.3249C16.0945 98.7361 15.2234 100.19 14.2998 101.496C14.0962 101.783 13.8888 102.066 13.6806 102.341ZM114.75 125.004C112.645 126.712 109.535 126.617 108.1 124.318C107.931 124.048 107.768 123.766 107.613 123.475C106.278 120.959 105.613 117.771 107.183 114.311C108.336 111.771 110.107 109.068 112.029 106.347C112.709 105.384 113.411 104.416 114.109 103.453L114.109 103.453L114.109 103.452L114.11 103.452C115.363 101.721 116.603 100.011 117.674 98.3925C119.336 95.8816 120.691 93.4572 121.112 91.3418C121.325 90.2688 121.31 89.2232 120.929 88.2705C120.543 87.3076 119.815 86.5196 118.751 85.9149C116.875 84.8494 114.511 84.705 111.688 85.185C108.86 85.6659 105.466 86.792 101.446 88.3935C97.1339 90.1115 92.0212 92.4113 86.0329 95.1051L86.0319 95.1055L86.0308 95.106C80.8884 97.4193 75.1002 100.023 68.6188 102.798C61.681 105.769 56.0921 106.112 52.0545 104.906C48.0361 103.706 45.5019 100.961 44.6051 97.5851C42.8107 90.8297 47.5445 81.0258 61.5797 75.8436C71.9828 72.0024 79.2765 66.9331 83.4906 61.7444C87.6974 56.5646 88.9073 51.1493 86.8149 46.779C84.7311 42.4267 79.5251 39.4403 71.6432 38.7509C63.7408 38.0599 52.9993 39.6528 39.5349 44.6177C34.2397 46.5703 29.8438 47.4522 26.3551 47.5929C22.8574 47.7339 20.3204 47.1285 18.6934 46.1628C17.0867 45.2092 16.3823 43.9241 16.404 42.5873C16.4264 41.2148 17.2171 39.6059 18.9912 38.0683C20.754 36.5405 23.3793 35.4263 26.232 34.2837C26.4398 34.2004 26.6488 34.117 26.8586 34.0333L26.8587 34.0333C29.4681 32.9922 32.1989 31.9027 34.3051 30.4284C36.6174 28.8097 38.2867 26.6494 38.2343 23.4966C38.2076 21.8922 37.7338 20.0744 36.7299 17.9853C35.2302 14.8642 35.8175 10.9499 38.8872 9.34772C48.4923 4.33447 59.4152 1.5 71 1.5C84.997 1.5 98.0276 5.63773 108.935 12.7567C111.995 14.7534 111.992 18.9626 109.964 22.0013C109.182 23.1727 108.526 24.4326 108.109 25.7634C107.452 27.8633 107.387 30.1483 108.359 32.5203C109.325 34.8782 111.288 37.2554 114.562 39.609C118.478 42.4233 120.521 45.1267 121.494 47.6954C122.467 50.2639 122.405 52.7851 121.949 55.3041C121.721 56.5671 121.397 57.8178 121.058 59.0733C121.013 59.2417 120.967 59.4103 120.921 59.5791L120.92 59.5849C120.627 60.6635 120.333 61.7492 120.103 62.8186C119.569 65.297 119.346 67.8163 120.301 70.2718C120.697 71.2906 121.285 72.0512 122.056 72.5432C122.823 73.0329 123.708 73.2148 124.628 73.1936C126.435 73.1518 128.525 72.3233 130.587 71.2388C132.67 70.1432 134.827 68.7289 136.788 67.417C137.042 67.2466 137.293 67.0782 137.54 66.9127L137.561 66.8984L137.571 66.8918L137.571 66.8916C138.785 66.0764 140.394 66.8675 140.45 68.3291C140.483 69.2152 140.5 70.1056 140.5 71C140.5 92.8036 130.46 112.262 114.75 125.004ZM109.541 26.2116C110.052 24.5783 110.982 23.0411 112.077 21.6386C113.94 19.2531 117.465 19.2272 119.628 21.3452C129.956 31.4614 137.142 44.7742 139.583 59.6829C139.958 61.9736 138.838 64.234 136.911 65.5279C136.851 65.5684 136.79 65.6089 136.73 65.6496L136.729 65.65L136.71 65.6626C136.46 65.8305 136.208 66.0002 135.953 66.1705C133.991 67.4836 131.893 68.8568 129.888 69.9112C127.863 70.9767 126.034 71.6607 124.594 71.694C123.891 71.7102 123.32 71.5702 122.863 71.2786C122.409 70.9894 122.003 70.5094 121.699 69.7282C120.904 67.6837 121.056 65.5155 121.569 63.1345C121.791 62.1068 122.073 61.0635 122.366 59.9822L122.366 59.9819C122.413 59.8102 122.46 59.6375 122.506 59.4638C122.846 58.2057 123.185 56.9017 123.426 55.5709C123.908 52.9024 124.002 50.0798 122.897 47.1639C121.792 44.2483 119.522 41.3267 115.438 38.391C112.312 36.1446 110.575 33.9718 109.747 31.9516C108.925 29.9454 108.973 28.0242 109.541 26.2116ZM71 0C107.736 0 137.956 27.9 141.626 63.6666C141.631 63.7185 141.647 63.7691 141.672 63.8148L141.801 64.0519C141.833 64.1107 141.812 64.184 141.753 64.2166C141.712 64.2399 141.687 64.2862 141.691 64.334C141.896 66.5286 142 68.7521 142 71C142 95.2965 129.796 116.743 111.184 129.543C111.173 129.549 111.165 129.559 111.159 129.569L111.129 129.618C111.121 129.632 111.103 129.636 111.089 129.628C111.079 129.622 111.067 129.622 111.058 129.629C99.6557 137.434 85.8611 142 71 142C31.7878 142 0 110.212 0 71C0 31.7878 31.7878 0 71 0Z" fill="#349BE9"/>
    <circle cx="55" cy="22" r="3.5" fill="#349BE9" stroke="#349BE9"/>
    <circle cx="70" cy="52" r="3.5" fill="#349BE9" stroke="#349BE9"/>
    <circle cx="60" cy="92" r="3.5" fill="#349BE9" stroke="#349BE9"/>
    <circle cx="105" cy="98" r="3.5" fill="#349BE9" stroke="#349BE9"/>
</svg>
