<svg width="127" height="118" viewBox="0 0 127 118" fill="none" xmlns="http://www.w3.org/2000/svg">
    <path fill-rule="evenodd" clip-rule="evenodd" d="M15 76.129C14.7283 76.129 14.5152 75.901 14.524 75.6294L14.5323 75.3715L14.5421 75.0653C14.55 74.8204 14.755 74.629 15 74.629C15.2752 74.629 15.4982 74.8521 15.4982 75.1273V75.379V75.6308C15.4982 75.906 15.2752 76.129 15 76.129ZM13.0399 76.0021C13.3088 76.0372 13.5505 75.839 13.5767 75.5691L13.6018 75.3114L13.6316 75.0048C13.6553 74.7618 13.476 74.5463 13.234 74.5147C12.9919 74.4831 12.7661 74.6459 12.7266 74.8867L12.6768 75.1907L12.6349 75.4462C12.591 75.7139 12.771 75.967 13.0399 76.0021ZM58.8452 76.129C58.57 76.129 58.3469 75.906 58.3469 75.6308V75.379V75.1273C58.3469 74.8521 58.57 74.629 58.8452 74.629C59.0902 74.629 59.2951 74.8204 59.303 75.0653L59.3129 75.3715L59.3212 75.6294C59.3299 75.901 59.1169 76.129 58.8452 76.129ZM60.8053 76.0021C60.5364 76.0372 60.2947 75.839 60.2684 75.5691L60.2433 75.3114L60.2135 75.0048C60.1899 74.7618 60.3691 74.5463 60.6112 74.5147C60.8532 74.4831 61.0791 74.6459 61.1185 74.8867L61.1684 75.1907L61.2103 75.4463C61.2541 75.7139 61.0742 75.967 60.8053 76.0021ZM62.73 75.6211C62.4681 75.6911 62.2031 75.5262 62.1418 75.2622L62.0831 75.0097L62.0133 74.709C61.9581 74.4716 62.107 74.235 62.3425 74.172C62.578 74.109 62.8233 74.2404 62.8939 74.4736L62.9834 74.7691L63.0586 75.0172C63.1372 75.2766 62.9918 75.5511 62.73 75.6211ZM64.5877 74.9905C64.3372 75.0944 64.053 74.9656 63.9575 74.7119L63.8662 74.4695L63.7575 74.1808C63.6716 73.9526 63.7878 73.6984 64.0131 73.605C64.2383 73.5115 64.4992 73.6094 64.6 73.8315L64.7275 74.1123L64.8345 74.3482C64.9466 74.5951 64.8382 74.8866 64.5877 74.9905ZM66.3466 74.1215C66.112 74.2572 65.8136 74.1668 65.6856 73.9277L65.5633 73.6994L65.4177 73.4277C65.3025 73.2126 65.3842 72.9453 65.5954 72.8231C65.8066 72.7009 66.0784 72.7637 66.2075 72.9708L66.3705 73.2324L66.5075 73.4522C66.6509 73.6823 66.5813 73.9857 66.3466 74.1215ZM67.9771 73.0299C67.7621 73.1951 67.4547 73.1442 67.2966 72.924L67.1455 72.7135L66.9659 72.4633C66.8236 72.265 66.8695 71.9893 67.0631 71.8405C67.2566 71.6918 67.5346 71.7186 67.6896 71.9072L67.8851 72.1451L68.0496 72.3454C68.2217 72.5548 68.192 72.8647 67.9771 73.0299ZM69.4518 71.7356C69.26 71.9274 68.9488 71.9167 68.7634 71.7188L68.5862 71.5298L68.3757 71.3051C68.2088 71.1269 68.2184 70.8476 68.3911 70.675C68.5638 70.5023 68.843 70.4927 69.0212 70.6596L69.2459 70.8701L69.435 71.0473C69.6328 71.2326 69.6435 71.5439 69.4518 71.7356ZM70.746 70.261C70.5808 70.4759 70.2709 70.5056 70.0615 70.3335L69.8613 70.169L69.6233 69.9734C69.4347 69.8185 69.4079 69.5405 69.5567 69.347C69.7054 69.1534 69.9811 69.1074 70.1794 69.2498L70.4296 69.4294L70.6401 69.5805C70.8603 69.7386 70.9112 70.046 70.746 70.261ZM71.8376 68.6305C71.7018 68.8652 71.3985 68.9348 71.1683 68.7914L70.9485 68.6544L70.6869 68.4914C70.4798 68.3623 70.417 68.0905 70.5392 67.8793C70.6615 67.6681 70.9287 67.5864 71.1438 67.7016L71.4155 67.8471L71.6439 67.9695C71.8829 68.0975 71.9734 68.3958 71.8376 68.6305ZM72.7066 66.8716C72.6028 67.1221 72.3112 67.2305 72.0643 67.1184L71.8284 67.0114L71.5476 66.8839C71.3255 66.7831 71.2277 66.5222 71.3211 66.297C71.4145 66.0717 71.6687 65.9555 71.897 66.0414L72.1856 66.1501L72.428 66.2414C72.6818 66.3369 72.8105 66.6211 72.7066 66.8716ZM73.3372 65.0139C73.2672 65.2757 72.9927 65.4211 72.7333 65.3425L72.4852 65.2673L72.1898 65.1778C71.9565 65.1072 71.8252 64.8618 71.8881 64.6264C71.9511 64.3909 72.1878 64.242 72.4252 64.2972L72.7258 64.367L72.9784 64.4257C73.2424 64.487 73.4072 64.752 73.3372 65.0139ZM73.7182 63.0892C73.6832 63.3581 73.43 63.538 73.1624 63.4941L72.9068 63.4523L72.6029 63.4024C72.362 63.363 72.1993 63.1371 72.2309 62.8951C72.2625 62.653 72.478 62.4738 72.7209 62.4974L73.0275 62.5272L73.2852 62.5523C73.5551 62.5786 73.7533 62.8202 73.7182 63.0892ZM73.8452 15C73.8452 15.2769 73.6207 15.5014 73.3438 15.5014H73.0952H72.8466C72.5696 15.5014 72.3452 15.2769 72.3452 15C72.3452 14.755 72.5365 14.55 72.7814 14.5422L73.0876 14.5323L73.3456 14.524C73.6171 14.5152 73.8452 14.7283 73.8452 15ZM73.7182 13.0399C73.7533 13.3088 73.5551 13.5505 73.2852 13.5767L73.0275 13.6018L72.7209 13.6317C72.478 13.6553 72.2625 13.476 72.2309 13.234C72.1993 12.992 72.362 12.7661 72.6029 12.7266L72.9068 12.6768L73.1624 12.6349C73.43 12.5911 73.6832 12.771 73.7182 13.0399ZM73.3372 11.1152C73.4072 11.377 73.2424 11.642 72.9784 11.7034L72.7258 11.762L72.4252 11.8319C72.1878 11.887 71.9511 11.7381 71.8881 11.5027C71.8252 11.2672 71.9565 11.0219 72.1898 10.9512L72.4852 10.8617L72.7333 10.7866C72.9927 10.708 73.2672 10.8534 73.3372 11.1152ZM72.7066 9.25745C72.8105 9.50793 72.6818 9.79212 72.428 9.88768L72.1856 9.97896L71.897 10.0877C71.6687 10.1736 71.4145 10.0574 71.3211 9.83211C71.2277 9.60684 71.3255 9.34592 71.5476 9.24514L71.8284 9.11768L72.0643 9.01064C72.3112 8.89858 72.6028 9.00697 72.7066 9.25745ZM71.8376 7.49853C71.9734 7.73322 71.8829 8.03158 71.6439 8.1596L71.4155 8.28191L71.1438 8.42743C70.9287 8.54263 70.6615 8.46096 70.5393 8.24977C70.4171 8.03857 70.4798 7.76673 70.6869 7.63769L70.9485 7.4747L71.1683 7.33769C71.3985 7.19429 71.7018 7.26384 71.8376 7.49853ZM70.746 5.86809C70.9112 6.08305 70.8603 6.39045 70.6401 6.54854L70.4296 6.69965L70.1794 6.87926C69.9811 7.02161 69.7054 6.97565 69.5567 6.78209C69.4079 6.58854 69.4347 6.31057 69.6233 6.1556L69.8613 5.96008L70.0615 5.79558C70.271 5.62347 70.5808 5.65312 70.746 5.86809ZM69.435 5.08178C69.6328 4.8964 69.6435 4.58512 69.4518 4.3934C69.2601 4.20168 68.9488 4.21236 68.7634 4.41021L68.5863 4.59927L68.3758 4.82392C68.2088 5.00211 68.2184 5.2814 68.3911 5.45406C68.5638 5.62672 68.8431 5.63638 69.0212 5.46942L69.2459 5.25892L69.435 5.08178ZM67.9771 3.09912C68.192 3.26432 68.2217 3.57421 68.0496 3.78368L67.8851 3.98389L67.6896 4.22187C67.5346 4.41048 67.2566 4.43724 67.0631 4.28849C66.8695 4.13975 66.8236 3.86408 66.9659 3.66578L67.1455 3.41557L67.2966 3.20506C67.4547 2.98483 67.7621 2.93393 67.9771 3.09912ZM66.3466 2.00759C66.5813 2.14338 66.6509 2.44671 66.5075 2.67683L66.3705 2.89668L66.2075 3.15826C66.0784 3.36534 65.8066 3.42811 65.5954 3.30591C65.3842 3.18371 65.3025 2.91642 65.4177 2.70133L65.5633 2.42965L65.6856 2.20129C65.8136 1.96228 66.112 1.87179 66.3466 2.00759ZM64.5877 1.13851C64.8382 1.2424 64.9466 1.53393 64.8345 1.78085L64.7275 2.01672L64.6 2.29757C64.4993 2.51965 64.2383 2.6175 64.0131 2.52407C63.7878 2.43064 63.6716 2.17643 63.7575 1.9482L63.8662 1.65956L63.9575 1.41716C64.0531 1.16339 64.3372 1.03463 64.5877 1.13851ZM62.73 0.507935C62.9918 0.577948 63.1372 0.85248 63.0586 1.11188L62.9835 1.35998L62.8939 1.6554C62.8233 1.88866 62.578 2.01999 62.3425 1.95703C62.107 1.89407 61.9582 1.6574 62.0133 1.41999L62.0832 1.11931L62.1418 0.866799C62.2031 0.602789 62.4681 0.437922 62.73 0.507935ZM60.8053 0.126912C61.0742 0.162008 61.2541 0.415153 61.2103 0.682785L61.1684 0.938319L61.1186 1.24229C61.0791 1.48317 60.8532 1.64589 60.6112 1.6143C60.3691 1.58271 60.1899 1.36719 60.2135 1.12425L60.2434 0.817668L60.2684 0.559942C60.2947 0.290014 60.5364 0.0918153 60.8053 0.126912ZM15.4982 0.49824C15.4982 0.22307 15.2752 0 15 0C14.7283 0 14.5152 0.228049 14.524 0.499601L14.5323 0.757523L14.5422 1.06373C14.55 1.30861 14.755 1.5 15 1.5C15.2752 1.5 15.4982 1.27693 15.4982 1.00176V0.75V0.49824ZM13.0399 0.126912C13.3088 0.091815 13.5505 0.290015 13.5767 0.559943L13.6018 0.817668L13.6317 1.12425C13.6553 1.36719 13.476 1.58271 13.234 1.6143C12.992 1.64589 12.7661 1.48317 12.7266 1.24229L12.6768 0.938319L12.6349 0.682786C12.591 0.415153 12.771 0.162008 13.0399 0.126912ZM11.1152 0.507934C11.377 0.437921 11.642 0.602788 11.7034 0.866798L11.762 1.11931L11.8319 1.41999C11.887 1.6574 11.7381 1.89407 11.5027 1.95703C11.2672 2.01998 11.0219 1.88866 10.9512 1.6554L10.8617 1.35998L10.7866 1.11187C10.708 0.852479 10.8534 0.577947 11.1152 0.507934ZM9.25745 1.13851C9.50792 1.03463 9.79211 1.16339 9.88767 1.41716L9.97895 1.65956L10.0876 1.94819C10.1736 2.17642 10.0574 2.43064 9.8321 2.52407C9.60683 2.6175 9.34592 2.51965 9.24514 2.29757L9.11768 2.01671L9.01064 1.78085C8.89857 1.53393 9.00697 1.24239 9.25745 1.13851ZM7.49852 2.00758C7.73321 1.87179 8.03157 1.96227 8.15959 2.20129L8.28191 2.42965L8.42742 2.70133C8.54263 2.91642 8.46095 3.1837 8.24976 3.30591C8.03856 3.42811 7.76673 3.36533 7.63769 3.15825L7.47469 2.89668L7.33769 2.67682C7.19429 2.4467 7.26384 2.14338 7.49852 2.00758ZM5.86809 3.09912C6.08305 2.93392 6.39044 2.98483 6.54854 3.20506L6.69964 3.41556L6.87926 3.66577C7.02161 3.86408 6.97565 4.13974 6.78209 4.28849C6.58853 4.43723 6.31057 4.41047 6.1556 4.22186L5.96007 3.98388L5.79558 3.78367C5.62347 3.5742 5.65312 3.26431 5.86809 3.09912ZM4.3934 4.39339C4.58511 4.20167 4.8964 4.21235 5.08178 4.4102L5.25892 4.59926L5.46942 4.82392C5.63638 5.0021 5.62672 5.28139 5.45406 5.45405C5.28139 5.62671 5.00211 5.63637 4.82393 5.46941L4.59927 5.25891L4.41021 5.08177C4.21236 4.89639 4.20168 4.5851 4.3934 4.39339ZM3.09913 5.86807C3.26432 5.65311 3.57421 5.62346 3.78368 5.79557L3.98389 5.96006L4.22187 6.15559C4.41048 6.31056 4.43724 6.58852 4.28849 6.78208C4.13975 6.97564 3.86408 7.0216 3.66578 6.87924L3.41557 6.69963L3.20507 6.54852C2.98483 6.39043 2.93393 6.08304 3.09913 5.86807ZM2.00759 7.49851C2.14338 7.26382 2.44671 7.19428 2.67683 7.33768L2.89669 7.47468L3.15825 7.63768C3.36534 7.76672 3.42811 8.03855 3.30591 8.24975C3.18371 8.46094 2.91642 8.54262 2.70133 8.42741L2.42965 8.28189L2.20129 8.15958C1.96228 8.03156 1.87179 7.7332 2.00759 7.49851ZM1.13851 9.25743C1.2424 9.00695 1.53393 8.89856 1.78086 9.01062L2.01672 9.11766L2.29757 9.24512C2.51965 9.34591 2.6175 9.60682 2.52407 9.83208C2.43064 10.0574 2.17643 10.1736 1.9482 10.0876L1.65956 9.97894L1.41716 9.88766C1.16339 9.7921 1.03463 9.50791 1.13851 9.25743ZM0.507935 11.1152C0.577948 10.8533 0.85248 10.7079 1.11188 10.7865L1.35998 10.8617L1.6554 10.9512C1.88866 11.0219 2.01999 11.2672 1.95703 11.5026C1.89407 11.7381 1.6574 11.887 1.41999 11.8318L1.11931 11.762L0.866799 11.7033C0.602789 11.642 0.437922 11.377 0.507935 11.1152ZM0.126912 13.0399C0.162008 12.7709 0.415153 12.591 0.682784 12.6349L0.938319 12.6768L1.24229 12.7266C1.48317 12.7661 1.64589 12.9919 1.6143 13.234C1.58271 13.476 1.36719 13.6553 1.12425 13.6316L0.817668 13.6018L0.559942 13.5767C0.290014 13.5505 0.0918152 13.3088 0.126912 13.0399ZM0 61.129C0 60.8521 0.224486 60.6276 0.501404 60.6276H0.75H0.998596C1.27551 60.6276 1.5 60.8521 1.5 61.129C1.5 61.374 1.30861 61.579 1.06373 61.5869L0.757523 61.5967L0.499597 61.605C0.228047 61.6138 0 61.4007 0 61.129ZM0.559941 62.5523C0.290014 62.5786 0.0918147 62.8202 0.126911 63.0891C0.162007 63.3581 0.415152 63.538 0.682784 63.4941L0.938318 63.4522L1.24229 63.4024C1.48317 63.3629 1.64589 63.1371 1.6143 62.895C1.58271 62.653 1.36719 62.4737 1.12425 62.4974L0.817668 62.5272L0.559941 62.5523ZM0.507934 65.0138C0.437921 64.752 0.602791 64.487 0.866803 64.4257L1.11931 64.367L1.41999 64.2972C1.6574 64.242 1.89407 64.3909 1.95703 64.6264C2.01998 64.8618 1.88866 65.1071 1.6554 65.1778L1.35998 65.2673L1.11187 65.3425C0.852479 65.4211 0.577946 65.2757 0.507934 65.0138ZM1.13851 66.8716C1.03463 66.6211 1.16339 66.3369 1.41716 66.2414L1.65956 66.1501L1.9482 66.0414C2.17643 65.9554 2.43064 66.0717 2.52407 66.2969C2.6175 66.5222 2.51964 66.7831 2.29757 66.8839L2.01671 67.0114L1.78085 67.1184C1.53393 67.2305 1.24239 67.1221 1.13851 66.8716ZM2.00758 68.6305C1.87179 68.3958 1.96227 68.0975 2.20129 67.9694L2.42965 67.8471L2.70133 67.7016C2.91642 67.5864 3.1837 67.6681 3.3059 67.8793C3.42811 68.0905 3.36533 68.3623 3.15825 68.4913L2.89668 68.6543L2.67682 68.7913C2.4467 68.9347 2.14338 68.8652 2.00758 68.6305ZM3.09912 70.2609C2.93392 70.046 2.98483 69.7386 3.20506 69.5805L3.41556 69.4294L3.66577 69.2498C3.86408 69.1074 4.13974 69.1534 4.28849 69.3469C4.43723 69.5405 4.41048 69.8185 4.22186 69.9734L3.98388 70.169L3.78368 70.3335C3.5742 70.5056 3.26431 70.4759 3.09912 70.2609ZM4.39339 71.7356C4.20168 71.5439 4.21235 71.2326 4.41021 71.0473L4.59926 70.8701L4.82392 70.6596C5.00211 70.4927 5.28139 70.5023 5.45405 70.675C5.62672 70.8476 5.63637 71.1269 5.46941 71.3051L5.25891 71.5298L5.08177 71.7188C4.89639 71.9167 4.58511 71.9274 4.39339 71.7356ZM5.86808 73.0299C5.65311 72.8647 5.62346 72.5548 5.79557 72.3454L5.96007 72.1451L6.15559 71.9072C6.31056 71.7186 6.58853 71.6918 6.78208 71.8405C6.97564 71.9893 7.0216 72.265 6.87925 72.4633L6.69963 72.7135L6.54853 72.924C6.39043 73.1442 6.08304 73.1951 5.86808 73.0299ZM7.49852 74.1215C7.26383 73.9857 7.19428 73.6823 7.33768 73.4522L7.47469 73.2324L7.63768 72.9708C7.76673 72.7637 8.03856 72.7009 8.24975 72.8231C8.46095 72.9453 8.54262 73.2126 8.42742 73.4277L8.2819 73.6994L8.15959 73.9277C8.03157 74.1668 7.73321 74.2572 7.49852 74.1215ZM10.7865 75.0172C10.708 75.2766 10.8533 75.5511 11.1152 75.6211C11.377 75.6911 11.642 75.5262 11.7033 75.2622L11.762 75.0097L11.8319 74.709C11.887 74.4716 11.7381 74.235 11.5027 74.172C11.2672 74.109 11.0219 74.2404 10.9512 74.4736L10.8617 74.7691L10.7865 75.0172ZM9.25743 74.9905C9.50791 75.0944 9.7921 74.9656 9.88766 74.7119L9.97894 74.4695L10.0876 74.1808C10.1736 73.9526 10.0574 73.6984 9.83209 73.605C9.60682 73.5115 9.34591 73.6094 9.24513 73.8315L9.11767 74.1123L9.01063 74.3482C8.89857 74.5951 9.00696 74.8866 9.25743 74.9905ZM0 59.1234C0 59.4003 0.224486 59.6248 0.501404 59.6248H0.75H0.998596C1.27551 59.6248 1.5 59.4003 1.5 59.1234C1.5 58.8465 1.27551 58.622 0.998596 58.622H0.75H0.501404C0.224486 58.622 0 58.8465 0 59.1234ZM0 57.1178C0 57.3947 0.224486 57.6192 0.501404 57.6192H0.75H0.998596C1.27551 57.6192 1.5 57.3947 1.5 57.1178C1.5 56.8409 1.27551 56.6164 0.998596 56.6164H0.75H0.501404C0.224486 56.6164 0 56.8409 0 57.1178ZM0 55.1122C0 55.3891 0.224486 55.6136 0.501404 55.6136H0.75H0.998596C1.27551 55.6136 1.5 55.3891 1.5 55.1122C1.5 54.8353 1.27551 54.6108 0.998596 54.6108H0.75H0.501404C0.224486 54.6108 0 54.8353 0 55.1122ZM0 53.1066C0 53.3835 0.224486 53.608 0.501404 53.608H0.75H0.998596C1.27551 53.608 1.5 53.3835 1.5 53.1066C1.5 52.8297 1.27551 52.6052 0.998596 52.6052H0.75H0.501404C0.224486 52.6052 0 52.8297 0 53.1066ZM0 51.101C0 51.3779 0.224486 51.6024 0.501404 51.6024H0.75H0.998596C1.27551 51.6024 1.5 51.3779 1.5 51.101C1.5 50.8241 1.27551 50.5996 0.998596 50.5996H0.75H0.501404C0.224486 50.5996 0 50.8241 0 51.101ZM0 49.0954C0 49.3723 0.224486 49.5968 0.501404 49.5968H0.75H0.998596C1.27551 49.5968 1.5 49.3723 1.5 49.0954C1.5 48.8185 1.27551 48.594 0.998596 48.594H0.75H0.501404C0.224486 48.594 0 48.8185 0 49.0954ZM0 47.0898C0 47.3667 0.224486 47.5912 0.501404 47.5912H0.75H0.998596C1.27551 47.5912 1.5 47.3667 1.5 47.0898C1.5 46.8128 1.27551 46.5884 0.998596 46.5884H0.75H0.501404C0.224486 46.5884 0 46.8128 0 47.0898ZM0 45.0841C0 45.3611 0.224486 45.5855 0.501404 45.5855H0.75H0.998596C1.27551 45.5855 1.5 45.3611 1.5 45.0841C1.5 44.8072 1.27551 44.5827 0.998596 44.5827H0.75H0.501404C0.224486 44.5827 0 44.8072 0 45.0841ZM0 43.0785C0 43.3554 0.224486 43.5799 0.501404 43.5799H0.75H0.998596C1.27551 43.5799 1.5 43.3554 1.5 43.0785C1.5 42.8016 1.27551 42.5771 0.998596 42.5771H0.75H0.501404C0.224486 42.5771 0 42.8016 0 43.0785ZM0 41.0729C0 41.3498 0.224485 41.5743 0.501402 41.5743H0.75H0.998598C1.27551 41.5743 1.5 41.3498 1.5 41.0729C1.5 40.796 1.27551 40.5715 0.998598 40.5715H0.75H0.501402C0.224485 40.5715 0 40.796 0 41.0729ZM0 39.0673C0 39.3442 0.224486 39.5687 0.501404 39.5687H0.75H0.998596C1.27551 39.5687 1.5 39.3442 1.5 39.0673C1.5 38.7904 1.27551 38.5659 0.998596 38.5659H0.75H0.501404C0.224486 38.5659 0 38.7904 0 39.0673ZM0 37.0617C0 37.3386 0.224485 37.5631 0.501402 37.5631H0.75H0.998598C1.27551 37.5631 1.5 37.3386 1.5 37.0617C1.5 36.7848 1.27551 36.5603 0.998598 36.5603H0.75H0.501402C0.224485 36.5603 0 36.7848 0 37.0617ZM0 35.0561C0 35.333 0.224486 35.5575 0.501404 35.5575H0.75H0.998596C1.27551 35.5575 1.5 35.333 1.5 35.0561C1.5 34.7792 1.27551 34.5547 0.998596 34.5547H0.75H0.501404C0.224486 34.5547 0 34.7792 0 35.0561ZM0 33.0505C0 33.3274 0.224486 33.5519 0.501404 33.5519H0.75H0.998596C1.27551 33.5519 1.5 33.3274 1.5 33.0505C1.5 32.7736 1.27551 32.5491 0.998596 32.5491H0.75H0.501404C0.224486 32.5491 0 32.7736 0 33.0505ZM0 31.0449C0 31.3218 0.224486 31.5463 0.501403 31.5463H0.75H0.998597C1.27551 31.5463 1.5 31.3218 1.5 31.0449C1.5 30.7679 1.27551 30.5435 0.998597 30.5435H0.75H0.501403C0.224486 30.5435 0 30.7679 0 31.0449ZM0 29.0393C0 29.3162 0.224485 29.5407 0.501402 29.5407H0.75H0.998598C1.27551 29.5407 1.5 29.3162 1.5 29.0393C1.5 28.7623 1.27551 28.5379 0.998598 28.5379H0.75H0.501402C0.224485 28.5379 0 28.7623 0 29.0393ZM0 27.0336C0 27.3106 0.224485 27.535 0.501402 27.535H0.75H0.998598C1.27551 27.535 1.5 27.3106 1.5 27.0336C1.5 26.7567 1.27551 26.5322 0.998598 26.5322H0.75H0.501402C0.224485 26.5322 0 26.7567 0 27.0336ZM0 25.028C0 25.305 0.224486 25.5294 0.501403 25.5294H0.75H0.998597C1.27551 25.5294 1.5 25.305 1.5 25.028C1.5 24.7511 1.27551 24.5266 0.998597 24.5266H0.75H0.501403C0.224486 24.5266 0 24.7511 0 25.028ZM0 23.0224C0 23.2993 0.224485 23.5238 0.501401 23.5238H0.75H0.998599C1.27552 23.5238 1.5 23.2993 1.5 23.0224C1.5 22.7455 1.27552 22.521 0.998599 22.521H0.75H0.501401C0.224485 22.521 0 22.7455 0 23.0224ZM0 21.0168C0 21.2937 0.224485 21.5182 0.501401 21.5182H0.75H0.998599C1.27552 21.5182 1.5 21.2937 1.5 21.0168C1.5 20.7399 1.27552 20.5154 0.998599 20.5154H0.75H0.501401C0.224485 20.5154 0 20.7399 0 21.0168ZM0 19.0112C0 19.2881 0.224485 19.5126 0.501401 19.5126H0.75H0.998599C1.27552 19.5126 1.5 19.2881 1.5 19.0112C1.5 18.7343 1.27552 18.5098 0.998599 18.5098H0.75H0.501401C0.224485 18.5098 0 18.7343 0 19.0112ZM0 17.0056C0 17.2825 0.224485 17.507 0.501402 17.507H0.75H0.998598C1.27551 17.507 1.5 17.2825 1.5 17.0056C1.5 16.7287 1.27551 16.5042 0.998598 16.5042H0.75H0.501402C0.224485 16.5042 0 16.7287 0 17.0056ZM0 15C0 15.2769 0.224494 15.5014 0.501422 15.5014H0.75H0.998578C1.27551 15.5014 1.5 15.2769 1.5 15C1.5 14.755 1.30861 14.55 1.06373 14.5421L0.757523 14.5323L0.499601 14.524C0.228049 14.5152 0 14.7283 0 15ZM16.993 0C16.7178 0 16.4947 0.22307 16.4947 0.49824V0.75V1.00176C16.4947 1.27693 16.7178 1.5 16.993 1.5C17.2681 1.5 17.4912 1.27693 17.4912 1.00176V0.75V0.49824C17.4912 0.22307 17.2681 0 16.993 0ZM18.9859 0C18.7108 0 18.4877 0.22307 18.4877 0.49824V0.75V1.00176C18.4877 1.27693 18.7108 1.5 18.9859 1.5C19.2611 1.5 19.4842 1.27693 19.4842 1.00176V0.75V0.49824C19.4842 0.22307 19.2611 0 18.9859 0ZM20.9789 0C20.7037 0 20.4806 0.22307 20.4806 0.49824V0.75V1.00176C20.4806 1.27693 20.7037 1.5 20.9789 1.5C21.2541 1.5 21.4771 1.27693 21.4771 1.00176V0.75V0.49824C21.4771 0.22307 21.2541 0 20.9789 0ZM22.9718 0C22.6967 0 22.4736 0.22307 22.4736 0.49824V0.75V1.00176C22.4736 1.27693 22.6967 1.5 22.9718 1.5C23.247 1.5 23.4701 1.27693 23.4701 1.00176V0.75V0.49824C23.4701 0.22307 23.247 0 22.9718 0ZM24.9648 0C24.6896 0 24.4666 0.22307 24.4666 0.49824V0.75V1.00176C24.4666 1.27693 24.6896 1.5 24.9648 1.5C25.24 1.5 25.4631 1.27693 25.4631 1.00176V0.75V0.49824C25.4631 0.22307 25.24 0 24.9648 0ZM26.9578 0C26.6826 0 26.4595 0.22307 26.4595 0.49824V0.75V1.00176C26.4595 1.27693 26.6826 1.5 26.9578 1.5C27.2329 1.5 27.456 1.27693 27.456 1.00176V0.75V0.49824C27.456 0.22307 27.2329 0 26.9578 0ZM28.9507 0C28.6756 0 28.4525 0.22307 28.4525 0.49824V0.75V1.00176C28.4525 1.27693 28.6756 1.5 28.9507 1.5C29.2259 1.5 29.449 1.27693 29.449 1.00176V0.75V0.49824C29.449 0.22307 29.2259 0 28.9507 0ZM30.9437 0C30.6685 0 30.4455 0.22307 30.4455 0.49824V0.75V1.00176C30.4455 1.27693 30.6685 1.5 30.9437 1.5C31.2189 1.5 31.4419 1.27693 31.4419 1.00176V0.75V0.49824C31.4419 0.22307 31.2189 0 30.9437 0ZM32.9367 0C32.6615 0 32.4384 0.223069 32.4384 0.49824V0.75V1.00176C32.4384 1.27693 32.6615 1.5 32.9367 1.5C33.2118 1.5 33.4349 1.27693 33.4349 1.00176V0.75V0.49824C33.4349 0.223069 33.2118 0 32.9367 0ZM34.9296 0C34.6544 0 34.4314 0.223069 34.4314 0.49824V0.75V1.00176C34.4314 1.27693 34.6544 1.5 34.9296 1.5C35.2048 1.5 35.4279 1.27693 35.4279 1.00176V0.75V0.49824C35.4279 0.223069 35.2048 0 34.9296 0ZM36.9226 0C36.6474 0 36.4243 0.223069 36.4243 0.49824V0.75V1.00176C36.4243 1.27693 36.6474 1.5 36.9226 1.5C37.1978 1.5 37.4208 1.27693 37.4208 1.00176V0.75V0.49824C37.4208 0.223069 37.1978 0 36.9226 0ZM38.9155 0C38.6404 0 38.4173 0.223069 38.4173 0.49824V0.75V1.00176C38.4173 1.27693 38.6404 1.5 38.9155 1.5C39.1907 1.5 39.4138 1.27693 39.4138 1.00176V0.75V0.49824C39.4138 0.223069 39.1907 0 38.9155 0ZM40.9085 0C40.6333 0 40.4103 0.223069 40.4103 0.49824V0.75V1.00176C40.4103 1.27693 40.6333 1.5 40.9085 1.5C41.1837 1.5 41.4067 1.27693 41.4067 1.00176V0.75V0.49824C41.4067 0.223069 41.1837 0 40.9085 0ZM42.9015 0C42.6263 0 42.4032 0.223069 42.4032 0.49824V0.75V1.00176C42.4032 1.27693 42.6263 1.5 42.9015 1.5C43.1766 1.5 43.3997 1.27693 43.3997 1.00176V0.75V0.49824C43.3997 0.223069 43.1766 0 42.9015 0ZM44.8944 0C44.6193 0 44.3962 0.223069 44.3962 0.49824V0.75V1.00176C44.3962 1.27693 44.6193 1.5 44.8944 1.5C45.1696 1.5 45.3927 1.27693 45.3927 1.00176V0.75V0.49824C45.3927 0.223069 45.1696 0 44.8944 0ZM46.8874 0C46.6122 0 46.3892 0.223069 46.3892 0.49824V0.75V1.00176C46.3892 1.27693 46.6122 1.5 46.8874 1.5C47.1626 1.5 47.3856 1.27693 47.3856 1.00176V0.75V0.49824C47.3856 0.223069 47.1626 0 46.8874 0ZM48.8804 0C48.6052 0 48.3821 0.22307 48.3821 0.498241V0.75V1.00176C48.3821 1.27693 48.6052 1.5 48.8804 1.5C49.1555 1.5 49.3786 1.27693 49.3786 1.00176V0.75V0.498241C49.3786 0.22307 49.1555 0 48.8804 0ZM50.8733 0C50.5982 0 50.3751 0.22307 50.3751 0.498241V0.75V1.00176C50.3751 1.27693 50.5982 1.5 50.8733 1.5C51.1485 1.5 51.3716 1.27693 51.3716 1.00176V0.75V0.498241C51.3716 0.22307 51.1485 0 50.8733 0ZM52.8663 0C52.5911 0 52.368 0.22307 52.368 0.498241V0.75V1.00176C52.368 1.27693 52.5911 1.5 52.8663 1.5C53.1415 1.5 53.3645 1.27693 53.3645 1.00176V0.75V0.498241C53.3645 0.22307 53.1415 0 52.8663 0ZM54.8593 0C54.5841 0 54.361 0.22307 54.361 0.498241V0.75V1.00176C54.361 1.27693 54.5841 1.5 54.8593 1.5C55.1344 1.5 55.3575 1.27693 55.3575 1.00176V0.75V0.498241C55.3575 0.22307 55.1344 0 54.8593 0ZM56.8522 0C56.577 0 56.354 0.22307 56.354 0.498241V0.75V1.00176C56.354 1.27693 56.577 1.5 56.8522 1.5C57.1274 1.5 57.3505 1.27693 57.3505 1.00176V0.75V0.498241C57.3505 0.22307 57.1274 0 56.8522 0ZM58.8452 0C58.57 0 58.3469 0.223065 58.3469 0.49823V0.75V1.00177C58.3469 1.27693 58.57 1.5 58.8452 1.5C59.0902 1.5 59.2951 1.30861 59.303 1.06373L59.3129 0.757523L59.3212 0.499601C59.3299 0.228048 59.1169 0 58.8452 0ZM73.8452 17.0056C73.8452 16.7287 73.6207 16.5042 73.3438 16.5042H73.0952H72.8466C72.5696 16.5042 72.3452 16.7287 72.3452 17.0056C72.3452 17.2825 72.5696 17.507 72.8466 17.507H73.0952H73.3438C73.6207 17.507 73.8452 17.2825 73.8452 17.0056ZM73.8452 19.0112C73.8452 18.7343 73.6207 18.5098 73.3438 18.5098H73.0952H72.8466C72.5696 18.5098 72.3452 18.7343 72.3452 19.0112C72.3452 19.2881 72.5696 19.5126 72.8466 19.5126H73.0952H73.3438C73.6207 19.5126 73.8452 19.2881 73.8452 19.0112ZM73.8452 20.7245C73.8452 20.609 73.7515 20.5154 73.6361 20.5154H73.0952H72.5542C72.4388 20.5154 72.3452 20.609 72.3452 20.7245C72.3452 20.84 72.2515 20.9336 72.1361 20.9336H41.2646C32.9804 20.9336 26.2646 27.6493 26.2646 35.9336V82.0626C26.2646 90.3469 32.9804 97.0626 41.2646 97.0626H46.5916C49.8707 97.0626 52.5291 99.7209 52.5291 103C52.5291 111.284 59.2448 118 67.529 118H111.374C119.658 118 126.374 111.284 126.374 103V56.8711C126.374 48.5868 119.659 41.8711 111.374 41.8711H106.047C102.768 41.8711 100.11 39.2128 100.11 35.9336C100.11 27.6493 93.3941 20.9336 85.1098 20.9336H74.0542C73.9388 20.9336 73.8452 20.84 73.8452 20.7245ZM98.6098 35.9336C98.6098 39.2128 95.9515 41.8711 92.6723 41.8711H67.5291C59.2448 41.8711 52.5291 48.5868 52.5291 56.8711V74.5485C52.5291 74.593 52.493 74.629 52.4485 74.629C52.4041 74.629 52.368 74.6651 52.368 74.7095V75.379V76.0485C52.368 76.093 52.4041 76.129 52.4485 76.129C52.493 76.129 52.5291 76.1651 52.5291 76.2095V89.5626C52.5291 92.8763 49.8428 95.5626 46.5291 95.5626H41.2646C33.8088 95.5626 27.7646 89.5185 27.7646 82.0626V35.9336C27.7646 28.4777 33.8088 22.4336 41.2646 22.4336H85.1098C92.5657 22.4336 98.6098 28.4777 98.6098 35.9336ZM60.0291 95.5626C56.7153 95.5626 54.0291 92.8763 54.0291 89.5626V56.8711C54.0291 49.4152 60.0732 43.3711 67.5291 43.3711H72.2407C72.2984 43.3711 72.3452 43.4179 72.3452 43.4755C72.3452 43.5332 72.3919 43.58 72.4496 43.58H73.0952H73.7407C73.7984 43.58 73.8452 43.5332 73.8452 43.4755C73.8452 43.4179 73.8919 43.3711 73.9496 43.3711H92.6098C95.9235 43.3711 98.6098 46.0574 98.6098 49.3711V82.0627C98.6098 89.5185 92.5657 95.5626 85.1098 95.5626H60.0291ZM54.0291 103C54.0291 99.7209 56.6874 97.0626 59.9666 97.0626H85.1098C93.3941 97.0626 100.11 90.3469 100.11 82.0627V49.3711C100.11 46.0574 102.796 43.3711 106.11 43.3711H111.374C118.83 43.3711 124.874 49.4152 124.874 56.8711V103C124.874 110.456 118.83 116.5 111.374 116.5H67.529C60.0732 116.5 54.0291 110.456 54.0291 103ZM73.8452 23.0224C73.8452 22.7455 73.6207 22.521 73.3438 22.521H73.0952H72.8466C72.5696 22.521 72.3452 22.7455 72.3452 23.0224C72.3452 23.2994 72.5696 23.5238 72.8466 23.5238H73.0952H73.3438C73.6207 23.5238 73.8452 23.2994 73.8452 23.0224ZM73.8452 25.0281C73.8452 24.7511 73.6207 24.5267 73.3438 24.5267H73.0952H72.8466C72.5696 24.5267 72.3452 24.7511 72.3452 25.0281C72.3452 25.305 72.5696 25.5295 72.8466 25.5295H73.0952H73.3438C73.6207 25.5295 73.8452 25.305 73.8452 25.0281ZM73.8452 27.0337C73.8452 26.7568 73.6207 26.5323 73.3438 26.5323H73.0952H72.8466C72.5696 26.5323 72.3452 26.7568 72.3452 27.0337C72.3452 27.3106 72.5696 27.5351 72.8466 27.5351H73.0952H73.3438C73.6207 27.5351 73.8452 27.3106 73.8452 27.0337ZM73.8452 29.0393C73.8452 28.7624 73.6207 28.5379 73.3438 28.5379H73.0952H72.8466C72.5696 28.5379 72.3452 28.7624 72.3452 29.0393C72.3452 29.3162 72.5696 29.5407 72.8466 29.5407H73.0952H73.3438C73.6207 29.5407 73.8452 29.3162 73.8452 29.0393ZM73.8452 31.0449C73.8452 30.768 73.6207 30.5435 73.3438 30.5435H73.0952H72.8466C72.5696 30.5435 72.3452 30.768 72.3452 31.0449C72.3452 31.3218 72.5696 31.5463 72.8466 31.5463H73.0952H73.3438C73.6207 31.5463 73.8452 31.3218 73.8452 31.0449ZM73.8452 33.0505C73.8452 32.7736 73.6207 32.5491 73.3438 32.5491H73.0952H72.8466C72.5696 32.5491 72.3452 32.7736 72.3452 33.0505C72.3452 33.3274 72.5696 33.5519 72.8466 33.5519H73.0952H73.3438C73.6207 33.5519 73.8452 33.3274 73.8452 33.0505ZM73.8452 35.0561C73.8452 34.7792 73.6207 34.5547 73.3438 34.5547H73.0952H72.8466C72.5696 34.5547 72.3452 34.7792 72.3452 35.0561C72.3452 35.333 72.5696 35.5575 72.8466 35.5575H73.0952H73.3438C73.6207 35.5575 73.8452 35.333 73.8452 35.0561ZM73.8452 37.0617C73.8452 36.7848 73.6207 36.5603 73.3438 36.5603H73.0952H72.8466C72.5696 36.5603 72.3452 36.7848 72.3452 37.0617C72.3452 37.3386 72.5696 37.5631 72.8466 37.5631H73.0952H73.3438C73.6207 37.5631 73.8452 37.3386 73.8452 37.0617ZM73.8452 39.0673C73.8452 38.7904 73.6207 38.5659 73.3438 38.5659H73.0952H72.8466C72.5696 38.5659 72.3452 38.7904 72.3452 39.0673C72.3452 39.3443 72.5696 39.5687 72.8466 39.5687H73.0952H73.3438C73.6207 39.5687 73.8452 39.3443 73.8452 39.0673ZM73.8452 41.0729C73.8452 40.796 73.6207 40.5715 73.3438 40.5715H73.0952H72.8466C72.5696 40.5715 72.3452 40.796 72.3452 41.0729C72.3452 41.3499 72.5696 41.5744 72.8466 41.5744H73.0952H73.3438C73.6207 41.5744 73.8452 41.3499 73.8452 41.0729ZM73.8452 45.0842C73.8452 44.8073 73.6207 44.5828 73.3438 44.5828H73.0952H72.8466C72.5696 44.5828 72.3452 44.8073 72.3452 45.0842C72.3452 45.3611 72.5696 45.5856 72.8466 45.5856H73.0952H73.3438C73.6207 45.5856 73.8452 45.3611 73.8452 45.0842ZM73.8452 47.0898C73.8452 46.8129 73.6207 46.5884 73.3438 46.5884H73.0952H72.8466C72.5696 46.5884 72.3452 46.8129 72.3452 47.0898C72.3452 47.3667 72.5696 47.5912 72.8466 47.5912H73.0952H73.3438C73.6207 47.5912 73.8452 47.3667 73.8452 47.0898ZM73.8452 49.0954C73.8452 48.8185 73.6207 48.594 73.3438 48.594H73.0952H72.8466C72.5696 48.594 72.3452 48.8185 72.3452 49.0954C72.3452 49.3723 72.5696 49.5968 72.8466 49.5968H73.0952H73.3438C73.6207 49.5968 73.8452 49.3723 73.8452 49.0954ZM73.8452 51.101C73.8452 50.8241 73.6207 50.5996 73.3438 50.5996H73.0952H72.8466C72.5696 50.5996 72.3452 50.8241 72.3452 51.101C72.3452 51.3779 72.5696 51.6024 72.8466 51.6024H73.0952H73.3438C73.6207 51.6024 73.8452 51.3779 73.8452 51.101ZM73.8452 53.1066C73.8452 52.8297 73.6207 52.6052 73.3438 52.6052H73.0952H72.8466C72.5696 52.6052 72.3452 52.8297 72.3452 53.1066C72.3452 53.3835 72.5696 53.608 72.8466 53.608H73.0952H73.3438C73.6207 53.608 73.8452 53.3835 73.8452 53.1066ZM73.8452 55.1122C73.8452 54.8353 73.6207 54.6108 73.3438 54.6108H73.0952H72.8466C72.5696 54.6108 72.3452 54.8353 72.3452 55.1122C72.3452 55.3891 72.5696 55.6136 72.8466 55.6136H73.0952H73.3438C73.6207 55.6136 73.8452 55.3891 73.8452 55.1122ZM73.8452 57.1178C73.8452 56.8409 73.6207 56.6164 73.3438 56.6164H73.0952H72.8466C72.5696 56.6164 72.3452 56.8409 72.3452 57.1178C72.3452 57.3947 72.5696 57.6192 72.8466 57.6192H73.0952H73.3438C73.6207 57.6192 73.8452 57.3947 73.8452 57.1178ZM73.8452 59.1234C73.8452 58.8465 73.6207 58.622 73.3438 58.622H73.0952H72.8466C72.5696 58.622 72.3452 58.8465 72.3452 59.1234C72.3452 59.4003 72.5696 59.6248 72.8466 59.6248H73.0952H73.3438C73.6207 59.6248 73.8452 59.4003 73.8452 59.1234ZM73.8452 61.1291C73.8452 60.8521 73.6207 60.6276 73.3437 60.6276H73.0952H72.8466C72.5697 60.6276 72.3452 60.8521 72.3452 61.1291C72.3452 61.3741 72.5366 61.579 72.7814 61.5869L73.0876 61.5968L73.3456 61.6051C73.6171 61.6138 73.8452 61.4007 73.8452 61.1291ZM56.8522 76.129C57.1274 76.129 57.3504 75.906 57.3504 75.6308V75.379V75.1273C57.3504 74.8521 57.1274 74.629 56.8522 74.629C56.577 74.629 56.354 74.8521 56.354 75.1273V75.379V75.6308C56.354 75.906 56.577 76.129 56.8522 76.129ZM54.8592 76.129C55.1344 76.129 55.3575 75.906 55.3575 75.6308V75.379V75.1273C55.3575 74.8521 55.1344 74.629 54.8592 74.629C54.5841 74.629 54.361 74.8521 54.361 75.1273V75.379V75.6308C54.361 75.906 54.5841 76.129 54.8592 76.129ZM50.8733 76.129C51.1485 76.129 51.3716 75.906 51.3716 75.6308V75.379V75.1273C51.3716 74.8521 51.1485 74.629 50.8733 74.629C50.5981 74.629 50.3751 74.8521 50.3751 75.1273V75.379V75.6308C50.3751 75.906 50.5981 76.129 50.8733 76.129ZM48.8804 76.129C49.1555 76.129 49.3786 75.906 49.3786 75.6308V75.379V75.1273C49.3786 74.8521 49.1555 74.629 48.8804 74.629C48.6052 74.629 48.3821 74.8521 48.3821 75.1273V75.379V75.6308C48.3821 75.906 48.6052 76.129 48.8804 76.129ZM46.8874 76.129C47.1626 76.129 47.3856 75.906 47.3856 75.6308V75.379V75.1273C47.3856 74.8521 47.1626 74.629 46.8874 74.629C46.6122 74.629 46.3891 74.8521 46.3891 75.1273V75.379V75.6308C46.3891 75.906 46.6122 76.129 46.8874 76.129ZM44.8944 76.129C45.1696 76.129 45.3927 75.906 45.3927 75.6308V75.379V75.1273C45.3927 74.8521 45.1696 74.629 44.8944 74.629C44.6193 74.629 44.3962 74.8521 44.3962 75.1273V75.379V75.6308C44.3962 75.906 44.6193 76.129 44.8944 76.129ZM42.9015 76.129C43.1766 76.129 43.3997 75.906 43.3997 75.6308V75.379V75.1273C43.3997 74.8521 43.1766 74.629 42.9015 74.629C42.6263 74.629 42.4032 74.8521 42.4032 75.1273V75.379V75.6308C42.4032 75.906 42.6263 76.129 42.9015 76.129ZM40.9085 76.129C41.1837 76.129 41.4067 75.906 41.4067 75.6308V75.379V75.1273C41.4067 74.8521 41.1837 74.629 40.9085 74.629C40.6333 74.629 40.4103 74.8521 40.4103 75.1273V75.379V75.6308C40.4103 75.906 40.6333 76.129 40.9085 76.129ZM38.9155 76.129C39.1907 76.129 39.4138 75.906 39.4138 75.6308V75.379V75.1273C39.4138 74.8521 39.1907 74.629 38.9155 74.629C38.6404 74.629 38.4173 74.8521 38.4173 75.1273V75.379V75.6308C38.4173 75.906 38.6404 76.129 38.9155 76.129ZM36.9226 76.129C37.1978 76.129 37.4208 75.906 37.4208 75.6308V75.379V75.1273C37.4208 74.8521 37.1978 74.629 36.9226 74.629C36.6474 74.629 36.4243 74.8521 36.4243 75.1273V75.379V75.6308C36.4243 75.906 36.6474 76.129 36.9226 76.129ZM34.9296 76.129C35.2048 76.129 35.4279 75.906 35.4279 75.6308V75.379V75.1273C35.4279 74.8521 35.2048 74.629 34.9296 74.629C34.6544 74.629 34.4314 74.8521 34.4314 75.1273V75.379V75.6308C34.4314 75.906 34.6544 76.129 34.9296 76.129ZM32.9367 76.129C33.2118 76.129 33.4349 75.906 33.4349 75.6308V75.379V75.1273C33.4349 74.8521 33.2118 74.629 32.9367 74.629C32.6615 74.629 32.4384 74.8521 32.4384 75.1273V75.379V75.6308C32.4384 75.906 32.6615 76.129 32.9367 76.129ZM30.9437 76.129C31.2189 76.129 31.4419 75.906 31.4419 75.6308V75.379V75.1273C31.4419 74.8521 31.2189 74.629 30.9437 74.629C30.6685 74.629 30.4455 74.8521 30.4455 75.1273V75.379V75.6308C30.4455 75.906 30.6685 76.129 30.9437 76.129ZM28.9507 76.129C29.2259 76.129 29.449 75.906 29.449 75.6308V75.379V75.1273C29.449 74.8521 29.2259 74.629 28.9507 74.629C28.6756 74.629 28.4525 74.8521 28.4525 75.1273V75.379V75.6308C28.4525 75.906 28.6756 76.129 28.9507 76.129ZM24.9648 76.129C25.24 76.129 25.463 75.906 25.463 75.6308V75.379V75.1273C25.463 74.8521 25.24 74.629 24.9648 74.629C24.6896 74.629 24.4666 74.8521 24.4666 75.1273V75.379V75.6308C24.4666 75.906 24.6896 76.129 24.9648 76.129ZM22.9718 76.129C23.247 76.129 23.4701 75.906 23.4701 75.6308V75.379V75.1273C23.4701 74.8521 23.247 74.629 22.9718 74.629C22.6967 74.629 22.4736 74.8521 22.4736 75.1273V75.379V75.6308C22.4736 75.906 22.6967 76.129 22.9718 76.129ZM20.9789 76.129C21.254 76.129 21.4771 75.906 21.4771 75.6308V75.379V75.1273C21.4771 74.8521 21.254 74.629 20.9789 74.629C20.7037 74.629 20.4806 74.8521 20.4806 75.1273V75.379V75.6308C20.4806 75.906 20.7037 76.129 20.9789 76.129ZM18.9859 76.129C19.2611 76.129 19.4841 75.906 19.4841 75.6308V75.379V75.1273C19.4841 74.8521 19.2611 74.629 18.9859 74.629C18.7107 74.629 18.4877 74.8521 18.4877 75.1273V75.379V75.6308C18.4877 75.906 18.7107 76.129 18.9859 76.129ZM16.9929 76.129C17.2681 76.129 17.4912 75.906 17.4912 75.6308V75.379V75.1273C17.4912 74.8521 17.2681 74.629 16.9929 74.629C16.7178 74.629 16.4947 74.8521 16.4947 75.1273V75.379V75.6308C16.4947 75.906 16.7178 76.129 16.9929 76.129Z" fill="#349BE9"/>
</svg>
