<svg width="110" height="129" viewBox="0 0 110 129" fill="none" xmlns="http://www.w3.org/2000/svg">
    <path fill-rule="evenodd" clip-rule="evenodd" d="M9 1.5H78C82.1421 1.5 85.5 4.85786 85.5 9V17C85.5 20.3137 82.8137 23 79.5 23H32C27.0294 23 23 27.0294 23 32V55.5C23 58.8137 20.3137 61.5 17 61.5H9C4.85786 61.5 1.5 58.1421 1.5 54V9C1.5 4.85786 4.85786 1.5 9 1.5ZM23 69C23 65.6863 20.3137 63 17 63H9C4.02944 63 0 58.9706 0 54V9C0 4.02944 4.02944 0 9 0H78C82.9706 0 87 4.02944 87 9V17C87 20.3137 89.6863 23 93 23H101C105.971 23 110 27.0294 110 32V77C110 81.9706 105.971 86 101 86H73.5C70.1863 86 67.5 88.6863 67.5 92V95C67.5 98.3137 70.1863 101 73.5 101H87C90.3137 101 93 103.686 93 107L93 123C93 126.314 90.3137 129 87 129H48C44.6863 129 42 126.314 42 123V107C42 103.686 44.6863 101 48 101H60.5C63.8137 101 66.5 98.3137 66.5 95V92C66.5 88.6863 63.8137 86 60.5 86H32C27.0294 86 23 81.9706 23 77V69ZM91.5 107C91.5 104.515 89.4853 102.5 87 102.5H48C45.5147 102.5 43.5 104.515 43.5 107V123C43.5 125.485 45.5147 127.5 48 127.5H87C89.4853 127.5 91.5 125.485 91.5 123L91.5 107Z" fill="#349BE9"/>
    <rect x="23.75" y="23.75" width="85.5" height="61.5" rx="8.25" fill="#F2F2F2" stroke="#349BE9" stroke-width="1.5"/>
    <circle opacity="0.2" cx="67.2815" cy="115.867" r="4.47244" transform="rotate(90 67.2815 115.867)" fill="#349BE9"/>
    <circle opacity="0.2" cx="67.2804" cy="115.866" r="3.35433" transform="rotate(90 67.2804 115.866)" fill="#349BE9"/>
    <circle cx="67.2814" cy="115.867" r="2.23622" transform="rotate(90 67.2814 115.867)" fill="#349BE9"/>
    <path d="M63.3968 41.1753C65.0616 38.5135 68.9384 38.5135 70.6032 41.1753L84.0951 62.7463C85.8656 65.577 83.8306 69.25 80.4919 69.25H53.5081C50.1694 69.25 48.1344 65.577 49.9049 62.7463L63.3968 41.1753Z" stroke="#349BE9" stroke-width="1.5"/>
    <path d="M65.1062 44.3412C65.9915 42.961 68.0085 42.961 68.8938 44.3412L80.7256 62.7851C81.6863 64.2826 80.6109 66.25 78.8318 66.25H55.1682C53.3891 66.25 52.3137 64.2826 53.2744 62.7851L65.1062 44.3412Z" stroke="#349BE9" stroke-width="1.5"/>
</svg>
