<svg width="102" height="129" viewBox="0 0 102 129" fill="none" xmlns="http://www.w3.org/2000/svg">
    <path fill-rule="evenodd" clip-rule="evenodd" d="M91.3956 13.6719H10C5.30558 13.6719 1.5 17.4775 1.5 22.1719V78.4092C1.5 81.4361 3.781 83.9982 6.59172 85.1215C8.24719 85.7831 9.95543 86.6206 11.6931 87.5486C13.7437 88.6436 15.8681 89.8837 18.0261 91.1434L18.1918 91.2401C20.4116 92.5358 22.6685 93.8504 24.9444 95.0653C26.0423 95.6514 27.3853 95.5025 28.3236 94.685C28.9041 94.1793 29.4756 93.6666 30.0384 93.149C34.0665 89.4437 37.6231 85.5019 40.7815 81.9959L40.8906 81.8749C43.984 78.4409 46.7295 75.3932 49.1297 73.4897C53.316 70.1694 57.9186 69.3969 62.6185 70.085C64.3761 70.3424 66.1496 70.8041 67.9243 71.4121C70.2845 72.2207 72.9217 71.7504 74.7672 70.0716C80.3694 64.9754 86.8046 60.7134 94.1677 59.025C97.3149 58.3034 99.8956 55.7106 99.8956 52.4818V22.1719C99.8956 17.4775 96.09 13.6719 91.3956 13.6719ZM69.8287 74.9632C70.2282 74.5366 70.0879 73.8406 69.5462 73.6211C67.1309 72.6425 64.7392 71.9115 62.4012 71.5692C58.0309 70.9293 53.8658 71.6479 50.0617 74.6649C47.7606 76.49 45.0823 79.463 41.9173 82.9763L41.896 82.9999C38.7422 86.5007 35.1412 90.4932 31.0539 94.253C29.7601 95.443 30.0403 97.594 31.6765 98.2366C33.9701 99.1372 36.2415 99.8072 38.4652 100.125C42.8205 100.747 46.9772 100.017 50.7828 96.9992C53.0688 95.1862 55.755 91.9137 58.9441 87.9209C59.2258 87.5681 59.5112 87.2102 59.8001 86.8477L59.8148 86.8293C62.7675 83.1254 66.0983 78.9472 69.8287 74.9632ZM23.9235 100.083C25.8178 98.7351 28.2796 98.468 30.4299 99.3521C33.04 100.425 35.6631 101.24 38.2531 101.61C42.9387 102.279 47.5301 101.493 51.7149 98.1744C54.1636 96.2324 56.9638 92.8037 60.1161 88.857C60.4025 88.4985 60.692 88.1352 60.9849 87.7678C63.9421 84.0585 67.2363 79.9264 70.9236 75.9884C71.6271 75.2371 72.737 75.0326 73.658 75.4922C74.4305 75.8777 75.2038 76.2802 75.9767 76.6952C78.2625 77.9223 80.5293 79.2491 82.7582 80.5562L82.9081 80.6441C85.0808 81.9183 87.2191 83.1722 89.282 84.279C91.1076 85.2585 92.9002 86.1378 94.6326 86.8183C97.5125 87.9495 99.8956 90.5569 99.8956 93.651V118.997C99.8956 123.692 96.09 127.497 91.3956 127.497H10C5.30559 127.497 1.5 123.692 1.5 118.997V114.165C1.5 110.949 4.05536 108.356 7.20613 107.71C13.4294 106.434 18.9804 103.601 23.9235 100.083ZM24.3688 97.8985C24.8941 97.5032 24.8179 96.6982 24.238 96.3886C21.9332 95.1582 19.6524 93.8295 17.4357 92.5356L17.2815 92.4455L17.2809 92.4452C15.114 91.1804 13.0114 89.953 10.9866 88.8717C9.97004 88.3289 8.98119 87.8275 8.02205 87.3796C4.72095 85.838 1.5 88.4723 1.5 92.1156V100.642C1.5 104.058 4.37266 106.831 7.7026 106.067C13.8991 104.646 19.4274 101.617 24.3688 97.8985ZM99.8956 80.0099C99.8956 83.5762 96.7918 86.196 93.542 84.7271C92.4012 84.2115 91.2164 83.6146 89.9911 82.9572C87.9537 81.8641 85.8368 80.6227 83.6549 79.3432L83.517 79.2623C81.2912 77.957 79.0007 76.6161 76.6862 75.3736C75.0181 74.478 74.6365 72.2067 76.0434 70.9397C81.2683 66.2349 87.137 62.3694 93.7385 60.6736C97.0354 59.8267 99.8956 62.5992 99.8956 66.0031V80.0099ZM0 83.6113V85.1113V118.997C0 124.52 4.47716 128.997 10 128.997H91.3956C96.9185 128.997 101.396 124.52 101.396 118.997V22.1719C101.396 16.649 96.9185 12.1719 91.3956 12.1719H10C4.47715 12.1719 0 16.649 0 22.1719V83.6113Z" fill="#349BE9"/>
    <path d="M32.7109 6.43945C32.7109 3.53996 35.0614 1.18945 37.9609 1.18945H63.4332C66.3327 1.18945 68.6832 3.53996 68.6832 6.43945V12.915H32.7109V6.43945Z" stroke="#349BE9" stroke-width="1.5"/>
    <path d="M28.1602 28.9998V30.7398H31.3202V42.9998H33.3002V28.9998H28.1602Z" fill="#349BE9"/>
    <path d="M42.0825 43.1598C45.3425 43.1598 47.7825 40.5598 47.7825 35.9998C47.7825 31.4398 45.3425 28.8398 42.0825 28.8398C38.8025 28.8398 36.3625 31.4398 36.3625 35.9998C36.3625 40.5598 38.8025 43.1598 42.0825 43.1598ZM42.0825 41.3798C39.8825 41.3798 38.3625 39.5798 38.3625 35.9998C38.3625 32.4198 39.8825 30.6198 42.0825 30.6198C44.2625 30.6198 45.7825 32.4198 45.7825 35.9998C45.7825 39.5798 44.2625 41.3798 42.0825 41.3798Z" fill="#349BE9"/>
    <path d="M55.4223 43.1598C58.6823 43.1598 61.1223 40.5598 61.1223 35.9998C61.1223 31.4398 58.6823 28.8398 55.4223 28.8398C52.1423 28.8398 49.7023 31.4398 49.7023 35.9998C49.7023 40.5598 52.1423 43.1598 55.4223 43.1598ZM55.4223 41.3798C53.2223 41.3798 51.7023 39.5798 51.7023 35.9998C51.7023 32.4198 53.2223 30.6198 55.4223 30.6198C57.6023 30.6198 59.1223 32.4198 59.1223 35.9998C59.1223 39.5798 57.6023 41.3798 55.4223 41.3798Z" fill="#349BE9"/>
    <path d="M66.0822 36.5198C68.0222 36.5198 69.3222 34.9998 69.3222 32.6998C69.3222 30.3998 68.0222 28.8798 66.0822 28.8798C64.1422 28.8798 62.8222 30.4198 62.8222 32.6998C62.8222 34.9798 64.1422 36.5198 66.0822 36.5198ZM64.9622 42.9998H66.5022L76.0622 28.9998H74.5222L64.9622 42.9998ZM66.0822 35.3798C64.8822 35.3798 64.1222 34.3598 64.1222 32.6998C64.1222 31.0398 64.8822 30.0198 66.0822 30.0198C67.3022 30.0198 68.0422 31.0198 68.0422 32.6998C68.0422 34.3798 67.3022 35.3798 66.0822 35.3798ZM74.9422 43.1198C76.8822 43.1198 78.2022 41.5798 78.2022 39.2998C78.2022 37.0198 76.8822 35.4798 74.9422 35.4798C73.0022 35.4798 71.7022 37.0198 71.7022 39.2998C71.7022 41.5798 73.0022 43.1198 74.9422 43.1198ZM74.9422 41.9798C73.7222 41.9798 72.9822 40.9798 72.9822 39.2998C72.9822 37.6198 73.7222 36.6198 74.9422 36.6198C76.1422 36.6198 76.9022 37.6398 76.9022 39.2998C76.9022 40.9598 76.1422 41.9798 74.9422 41.9798Z" fill="#349BE9"/>
</svg>
