<svg width="35" height="46" viewBox="0 0 35 46" fill="none" xmlns="http://www.w3.org/2000/svg">
<g clip-path="url(#clip0_1049_3657)">
<path d="M2.15777 46.001H32.3666C33.5562 46.001 34.5243 45.0371 34.5243 43.8525V13.774C34.5243 13.7496 34.5128 13.7296 34.5114 13.7066C34.5085 13.6737 34.4999 13.6451 34.4927 13.6135C34.4701 13.514 34.4259 13.4207 34.3632 13.34C34.3531 13.3271 34.3546 13.3113 34.3445 13.2984L22.8364 0.407621C22.8321 0.403324 22.8263 0.403324 22.822 0.399027C22.7342 0.30766 22.6235 0.241385 22.5012 0.207097C22.4739 0.198503 22.4494 0.195638 22.4207 0.191342C22.379 0.18418 22.3401 0.166992 22.297 0.166992H2.15777C0.96812 0.166992 0 1.13094 0 2.31546V43.8525C0 45.0371 0.96812 46.001 2.15777 46.001ZM23.0162 2.76664L32.204 13.0578H23.7355C23.419 13.0578 23.0162 12.4562 23.0162 11.9836V2.76664ZM1.43851 2.31546C1.43851 2.12553 1.51429 1.94337 1.64918 1.80906C1.78407 1.67476 1.96701 1.59931 2.15777 1.59931H21.5777V11.9836C21.5777 13.1423 22.5199 14.4901 23.7355 14.4901H33.0858V43.8525C33.0858 44.0425 33.01 44.2246 32.8752 44.3589C32.7403 44.4932 32.5573 44.5687 32.3666 44.5687H2.15777C1.75499 44.5687 1.43851 44.2536 1.43851 43.8525V2.31546Z" fill="white"/>
<path d="M7.91262 20.2194H26.6133C26.8041 20.2194 26.987 20.144 27.1219 20.0097C27.2568 19.8754 27.3326 19.6932 27.3326 19.5033C27.3326 19.3133 27.2568 19.1312 27.1219 18.9969C26.987 18.8626 26.8041 18.7871 26.6133 18.7871H7.91262C7.72186 18.7871 7.53891 18.8626 7.40402 18.9969C7.26914 19.1312 7.19336 19.3133 7.19336 19.5033C7.19336 19.6932 7.26914 19.8754 7.40402 20.0097C7.53891 20.144 7.72186 20.2194 7.91262 20.2194Z" fill="white"/>
<path d="M7.91262 25.9489H26.6133C26.8041 25.9489 26.987 25.8735 27.1219 25.7392C27.2568 25.6049 27.3326 25.4227 27.3326 25.2328C27.3326 25.0428 27.2568 24.8607 27.1219 24.7264C26.987 24.5921 26.8041 24.5166 26.6133 24.5166H7.91262C7.72186 24.5166 7.53891 24.5921 7.40402 24.7264C7.26914 24.8607 7.19336 25.0428 7.19336 25.2328C7.19336 25.4227 7.26914 25.6049 7.40402 25.7392C7.53891 25.8735 7.72186 25.9489 7.91262 25.9489Z" fill="white"/>
<path d="M7.91262 14.4899H16.5437C16.7345 14.4899 16.9174 14.4145 17.0523 14.2802C17.1872 14.1459 17.263 13.9637 17.263 13.7738C17.263 13.5838 17.1872 13.4017 17.0523 13.2674C16.9174 13.1331 16.7345 13.0576 16.5437 13.0576H7.91262C7.72186 13.0576 7.53891 13.1331 7.40402 13.2674C7.26914 13.4017 7.19336 13.5838 7.19336 13.7738C7.19336 13.9637 7.26914 14.1459 7.40402 14.2802C7.53891 14.4145 7.72186 14.4899 7.91262 14.4899Z" fill="white"/>
<path d="M7.91262 31.6774H26.6133C26.8041 31.6774 26.987 31.602 27.1219 31.4677C27.2568 31.3334 27.3326 31.1512 27.3326 30.9613C27.3326 30.7713 27.2568 30.5892 27.1219 30.4549C26.987 30.3206 26.8041 30.2451 26.6133 30.2451H7.91262C7.72186 30.2451 7.53891 30.3206 7.40402 30.4549C7.26914 30.5892 7.19336 30.7713 7.19336 30.9613C7.19336 31.1512 7.26914 31.3334 7.40402 31.4677C7.53891 31.602 7.72186 31.6774 7.91262 31.6774Z" fill="white"/>
<path d="M7.91262 37.4069H26.6133C26.8041 37.4069 26.987 37.3315 27.1219 37.1972C27.2568 37.0629 27.3326 36.8807 27.3326 36.6908C27.3326 36.5008 27.2568 36.3187 27.1219 36.1844C26.987 36.0501 26.8041 35.9746 26.6133 35.9746H7.91262C7.72186 35.9746 7.53891 36.0501 7.40402 36.1844C7.26914 36.3187 7.19336 36.5008 7.19336 36.6908C7.19336 36.8807 7.26914 37.0629 7.40402 37.1972C7.53891 37.3315 7.72186 37.4069 7.91262 37.4069Z" fill="white"/>
</g>
<defs>
<clipPath id="clip0_1049_3657">
<rect width="34.5243" height="45.834" fill="white" transform="translate(0 0.166992)"/>
</clipPath>
</defs>
</svg>
