<svg width="21" height="19" viewBox="0 0 21 19" fill="none" xmlns="http://www.w3.org/2000/svg">
<path d="M4.17822 19C3.10192 19.0001 2.06872 18.577 1.30164 17.822L1.21703 17.7374C0.831622 17.3614 0.525388 16.9119 0.316373 16.4157C0.107358 15.9194 -0.00020806 15.3863 1.20258e-05 14.8478C-0.00135001 14.2648 0.112998 13.6874 0.336429 13.1489C0.559861 12.6104 0.887933 12.1217 1.30164 11.7109L11.3892 1.73397C12.4142 0.666809 13.8173 0.044948 15.2963 0.00234228C16.7753 -0.0402634 18.2119 0.499795 19.2966 1.50618C19.7858 1.99416 20.1729 2.57463 20.4355 3.21375C20.6981 3.85288 20.8308 4.53788 20.826 5.22882C20.8202 6.0005 20.662 6.76342 20.3604 7.47375C20.0589 8.18408 19.6199 8.82782 19.0688 9.36799L10.003 18.3492C9.94663 18.425 9.87445 18.4876 9.79146 18.5327C9.70846 18.5778 9.61665 18.6043 9.52238 18.6104C9.42811 18.6164 9.33366 18.6019 9.24558 18.5678C9.1575 18.5337 9.0779 18.4808 9.01232 18.4128C8.94673 18.3448 8.89673 18.2634 8.86579 18.1741C8.83484 18.0849 8.8237 17.99 8.83312 17.896C8.84255 17.802 8.87232 17.7112 8.92037 17.6299C8.96842 17.5485 9.0336 17.4786 9.11137 17.425L18.1511 8.44383C18.5805 8.02476 18.9228 7.52502 19.1584 6.9733C19.3941 6.42157 19.5184 5.82874 19.5244 5.22882C19.5291 4.70964 19.4302 4.19472 19.2335 3.71421C19.0368 3.23369 18.7463 2.79722 18.3789 2.43033C17.538 1.66424 16.4299 1.25889 15.2931 1.30149C14.1563 1.34409 13.0816 1.83123 12.3004 2.65812L2.24531 12.6351C1.949 12.9228 1.71296 13.2666 1.55094 13.6465C1.38891 14.0264 1.30417 14.4348 1.30164 14.8478C1.30024 15.2105 1.37086 15.5698 1.50939 15.9049C1.64792 16.2401 1.85161 16.5444 2.10864 16.8003L2.19325 16.8849C2.77556 17.4211 3.54515 17.7072 4.33634 17.6817C5.12752 17.6561 5.87703 17.3209 6.42352 16.7482L15.1119 8.15748C15.2762 7.99135 15.4057 7.79412 15.4929 7.57732C15.58 7.36053 15.6231 7.12853 15.6195 6.8949C15.6209 6.69198 15.582 6.4908 15.5049 6.30309C15.4278 6.11537 15.3141 5.94488 15.1704 5.80154C14.8418 5.50015 14.4078 5.3401 13.9621 5.35593C13.5165 5.37176 13.0949 5.5622 12.7885 5.88614L6.80099 11.8215C6.67844 11.9432 6.51257 12.0113 6.33987 12.0106C6.16717 12.01 6.00178 11.9408 5.8801 11.8183C5.75841 11.6957 5.69039 11.5299 5.691 11.3572C5.69161 11.1845 5.7608 11.0191 5.88335 10.8974L11.8969 4.94247C12.4481 4.37777 13.1992 4.05241 13.9882 4.03659C14.7771 4.02076 15.5407 4.31573 16.1141 4.85786C16.3778 5.12632 16.5851 5.44488 16.7237 5.79474C16.8623 6.1446 16.9294 6.51868 16.9211 6.8949C16.9204 7.30005 16.8389 7.70098 16.6813 8.07423C16.5238 8.44747 16.2933 8.78553 16.0035 9.06861L7.34117 17.6854C6.50155 18.5237 5.36468 18.9962 4.17822 19Z" fill="white"/>
</svg>
