<svg width="13" height="12" viewBox="0 0 13 12" fill="none" xmlns="http://www.w3.org/2000/svg">
<path d="M7.12813 5.95247L8.81209 4.26911C8.86739 4.21381 8.91126 4.14815 8.94119 4.07589C8.97113 4.00363 8.98653 3.92619 8.98653 3.84798C8.98653 3.76976 8.97113 3.69232 8.94119 3.62006C8.91126 3.5478 8.86739 3.48214 8.81209 3.42684C8.75678 3.37153 8.69113 3.32766 8.61887 3.29773C8.54661 3.2678 8.46916 3.2524 8.39095 3.2524C8.31274 3.2524 8.23529 3.2678 8.16303 3.29773C8.09077 3.32766 8.02512 3.37153 7.96981 3.42684L6.28646 5.11079L4.6031 3.42684C4.4914 3.31514 4.33992 3.2524 4.18196 3.2524C4.024 3.2524 3.87251 3.31514 3.76082 3.42684C3.64913 3.53853 3.58638 3.69002 3.58638 3.84798C3.58638 3.92619 3.60179 4.00363 3.63172 4.07589C3.66165 4.14815 3.70552 4.21381 3.76082 4.26911L5.44478 5.95247L3.76082 7.63583C3.64913 7.74752 3.58638 7.89901 3.58638 8.05697C3.58638 8.21492 3.64913 8.36641 3.76082 8.4781C3.87251 8.5898 4.024 8.65254 4.18196 8.65254C4.33992 8.65254 4.4914 8.5898 4.6031 8.4781L6.28646 6.79415L7.96981 8.4781C8.08151 8.5898 8.23299 8.65254 8.39095 8.65254C8.54891 8.65254 8.7004 8.5898 8.81209 8.4781C8.92378 8.36641 8.98653 8.21492 8.98653 8.05697C8.98653 7.89901 8.92378 7.74752 8.81209 7.63583L7.12813 5.95247ZM6.28646 11.9049C2.99891 11.9049 0.333984 9.24002 0.333984 5.95247C0.333984 2.66492 2.99891 0 6.28646 0C9.574 0 12.2389 2.66492 12.2389 5.95247C12.2389 9.24002 9.574 11.9049 6.28646 11.9049Z" fill="white"/>
</svg>
