<svg width="17" height="16" viewBox="0 0 17 16" xmlns="http://www.w3.org/2000/svg">
<path fill-rule="evenodd" clip-rule="evenodd" d="M8.9066 0C6.74644 0 6.47602 0.00952964 5.62738 0.0476484C4.78113 0.0865613 4.20292 0.220771 3.69707 0.416924C3.16617 0.61613 2.6852 0.928614 2.28772 1.33257C1.88317 1.72946 1.57021 2.2097 1.37068 2.73979C1.17423 3.24486 1.03982 3.8222 1.00085 4.66716C0.961874 5.51451 0.953125 5.78452 0.953125 7.94141C0.953125 10.0983 0.961874 10.3683 1.00085 11.2156C1.03982 12.0606 1.17423 12.638 1.37068 13.143C1.57024 13.6731 1.88319 14.1533 2.28772 14.5502C2.68523 14.9542 3.16619 15.2666 3.69707 15.4659C4.20292 15.662 4.78113 15.7963 5.62738 15.8352C6.47602 15.8733 6.74644 15.8828 8.9066 15.8828C11.0668 15.8828 11.3372 15.8733 12.1858 15.8352C13.0321 15.7963 13.6103 15.662 14.1161 15.4659C14.647 15.2667 15.128 14.9542 15.5255 14.5502C15.93 14.1534 16.243 13.6731 16.4425 13.143C16.639 12.638 16.7734 12.0606 16.8124 11.2156C16.8505 10.3683 16.8601 10.0983 16.8601 7.94141C16.8601 5.78452 16.8505 5.51451 16.8124 4.66716C16.7734 3.8222 16.639 3.24486 16.4425 2.73979C16.243 2.2097 15.93 1.72946 15.5255 1.33257C15.128 0.928614 14.647 0.61613 14.1161 0.416924C13.6103 0.220771 13.0321 0.0865613 12.1858 0.0476484C11.3372 0.00952964 11.0668 0 8.9066 0ZM8.9066 1.43104C11.0302 1.43104 11.2815 1.43898 12.1198 1.4771C12.8961 1.51284 13.3168 1.64149 13.5976 1.75029C13.9682 1.89482 14.2338 2.06715 14.5122 2.3443C14.7906 2.62225 14.9624 2.8875 15.1071 3.25757C15.2153 3.5379 15.3457 3.958 15.3807 4.73228C15.4189 5.5701 15.4269 5.82026 15.4269 7.94141C15.4269 10.0618 15.4189 10.3127 15.3807 11.1497C15.3449 11.9248 15.2153 12.3449 15.1071 12.6252C14.9796 12.9702 14.7763 13.2823 14.5122 13.5385C14.2338 13.8165 13.9682 13.988 13.5976 14.1325C13.3168 14.2405 12.8961 14.3708 12.1206 14.4057C11.2823 14.4438 11.031 14.4518 8.9066 14.4518C6.78302 14.4518 6.5309 14.4438 5.6934 14.4057C4.91714 14.37 4.4964 14.2405 4.21564 14.1325C3.87013 14.0053 3.55758 13.8023 3.30099 13.5385C3.03682 13.2823 2.83353 12.9702 2.70607 12.6252C2.59711 12.3449 2.46747 11.9248 2.43247 11.1505C2.39429 10.3127 2.38634 10.0626 2.38634 7.94141C2.38634 5.82105 2.39429 5.5701 2.43247 4.73308C2.46826 3.958 2.59711 3.5379 2.70607 3.25757C2.85082 2.8875 3.02341 2.62225 3.30099 2.3443C3.57936 2.06635 3.84501 1.89482 4.21564 1.75029C4.4964 1.64149 4.91714 1.51204 5.6926 1.4771C6.53169 1.43898 6.78223 1.43104 8.9066 1.43104ZM8.9066 10.5883C8.20354 10.5883 7.52928 10.3094 7.03214 9.81303C6.535 9.31664 6.25571 8.6434 6.25571 7.94141C6.25571 7.23941 6.535 6.56617 7.03214 6.06979C7.52928 5.5734 8.20354 5.29454 8.9066 5.29454C9.60966 5.29454 10.2839 5.5734 10.7811 6.06979C11.2782 6.56617 11.5575 7.23941 11.5575 7.94141C11.5575 8.6434 11.2782 9.31664 10.7811 9.81303C10.2839 10.3094 9.60966 10.5883 8.9066 10.5883ZM8.9066 3.86349C8.37027 3.86349 7.83919 3.96897 7.34368 4.17391C6.84817 4.37884 6.39794 4.67922 6.0187 5.05789C5.63945 5.43656 5.33862 5.8861 5.13338 6.38086C4.92813 6.87561 4.82249 7.40589 4.82249 7.94141C4.82249 8.47692 4.92813 9.0072 5.13338 9.50196C5.33862 9.99671 5.63945 10.4463 6.0187 10.8249C6.39794 11.2036 6.84817 11.504 7.34368 11.7089C7.83919 11.9138 8.37027 12.0193 8.9066 12.0193C9.98977 12.0193 11.0286 11.5897 11.7945 10.8249C12.5604 10.0602 12.9907 9.02294 12.9907 7.94141C12.9907 6.85988 12.5604 5.82264 11.7945 5.05789C11.0286 4.29313 9.98977 3.86349 8.9066 3.86349ZM14.1066 3.70228C14.1066 3.82743 14.0819 3.95135 14.0339 4.06697C13.986 4.18259 13.9157 4.28764 13.827 4.37613C13.7384 4.46463 13.6332 4.53482 13.5174 4.58271C13.4016 4.6306 13.2775 4.65525 13.1522 4.65525C13.0268 4.65525 12.9027 4.6306 12.7869 4.58271C12.6711 4.53482 12.5659 4.46463 12.4773 4.37613C12.3887 4.28764 12.3184 4.18259 12.2704 4.06697C12.2224 3.95135 12.1978 3.82743 12.1978 3.70228C12.1978 3.44954 12.2983 3.20715 12.4773 3.02843C12.6563 2.84972 12.899 2.74931 13.1522 2.74931C13.4053 2.74931 13.6481 2.84972 13.827 3.02843C14.006 3.20715 14.1066 3.44954 14.1066 3.70228Z"/>
</svg>
