<svg width="128" height="35" viewBox="0 0 128 35" fill="none" xmlns="http://www.w3.org/2000/svg">
<path d="M7.71081 7.30078C8.69796 7.30078 9.68511 7.40626 10.5626 7.61721C11.44 7.82816 12.3723 8.19732 13.3595 8.67196V12.3636C12.4272 11.7835 11.44 11.3616 10.398 10.9924C9.35606 10.6233 8.42375 10.465 7.60113 10.465C6.88819 10.465 6.33978 10.5705 5.95588 10.8342C5.57199 11.0979 5.35263 11.4671 5.35263 11.889C5.35263 12.1527 5.51715 12.4163 5.8462 12.68C6.17525 12.9437 7.05272 13.4184 8.53344 14.1567C10.6174 15.1587 12.0981 16.108 12.9208 16.9518C13.7434 17.7956 14.1821 18.8504 14.1821 20.0633C14.1821 21.7509 13.5789 23.0694 12.3175 24.0714C11.111 25.0207 9.4109 25.5481 7.32692 25.5481C6.01073 25.5481 4.80421 25.3898 3.65254 25.1262C2.50087 24.8625 1.56856 24.4933 0.855623 24.1241V20.2743C3.32349 21.5927 5.29779 22.1728 6.88819 22.1728C7.71081 22.1728 8.36891 22.0146 8.86248 21.7509C9.35606 21.4872 9.63027 21.1181 9.63027 20.6434C9.63027 20.3798 9.52058 20.1161 9.35606 19.9051C9.19153 19.6942 8.91733 19.4305 8.53344 19.2195C8.14955 18.9558 6.99787 18.4285 5.07842 17.4792C3.5977 16.7936 2.50087 16.0553 1.78793 15.2642C1.12983 14.4731 0.800781 13.5238 0.800781 12.4163C0.800781 10.8342 1.45888 9.62124 2.72023 8.67196C3.98159 7.77542 5.62684 7.30078 7.71081 7.30078Z" fill="white"/>
<path d="M24.0961 7.30078C26.6481 7.30078 28.6793 8.14703 30.1897 9.78664C31.7001 11.4263 32.4292 13.7534 32.4292 16.6624V17.35H20.0858C20.2941 18.9367 20.867 20.1532 21.8045 20.9995C22.7941 21.8457 24.0961 22.2688 25.8148 22.2688C26.9085 22.2688 27.9502 22.0573 28.9918 21.687C29.9814 21.3168 31.0751 20.735 32.1167 19.9416V23.3795C30.0855 24.8605 27.5856 25.5481 24.7211 25.5481C21.9608 25.5481 19.7212 24.7018 18.0025 23.0093C16.2838 21.3168 15.3984 19.0954 15.3984 16.2922C15.3984 13.5948 16.1797 11.4263 17.7942 9.73375C19.4087 8.04125 21.5441 7.30078 24.0961 7.30078ZM28.1064 14.5997C28.0023 13.3303 27.5856 12.3254 26.9606 11.5849C26.3356 10.8445 25.4502 10.4742 24.3044 10.4742C23.1586 10.4742 22.2212 10.8445 21.5441 11.532C20.867 12.2196 20.3983 13.2245 20.19 14.5997H28.1064Z" fill="white"/>
<path d="M49.4595 8.21047C49.1263 7.99643 48.8487 7.83589 48.5711 7.72887C47.9603 7.46131 47.294 7.30078 46.6277 7.30078C45.5728 7.30078 44.5733 7.67536 43.6849 8.47802C42.7966 9.22718 41.9082 10.5114 41.0198 12.2238H40.9643V7.67536H36.0781V25.5481H40.9643V17.3609C40.9643 16.4512 41.1864 15.595 41.6305 14.6853C42.0747 13.7756 42.6855 13.08 43.4073 12.5449C44.1291 12.0098 44.9065 11.7422 45.6283 11.7422C46.2391 11.7422 47.0164 12.0098 47.9048 12.5449L49.4595 8.21047Z" fill="white"/>
<path d="M79.4947 7.30078C81.4661 7.30078 82.9995 7.94291 84.2042 9.17367C85.3542 10.4044 85.9566 12.0633 85.9566 14.1502V25.4945H81.1376V14.6318C81.1376 13.4546 80.8638 12.5449 80.2614 11.9027C79.7138 11.2071 78.9471 10.886 77.9614 10.886C77.1948 10.886 76.5376 11.1001 75.8805 11.5282C75.2233 11.9562 74.5114 12.6519 73.7448 13.6686V25.5481H68.9258V7.62185H73.7448V10.1369C74.621 9.12016 75.5519 8.371 76.4829 7.94291C77.4138 7.51483 78.3995 7.30078 79.4947 7.30078Z" fill="white"/>
<path d="M102.53 3.65039H102.893V8.19307H111.5V11.6128H102.893V19.4732C102.893 20.2388 103.152 20.8513 103.619 21.3107C104.085 21.7701 104.707 22.0253 105.537 22.0253C106.574 22.0253 107.818 21.668 109.218 20.9024V24.4753C107.559 25.1898 106.056 25.5471 104.604 25.5471C102.633 25.5471 101.13 25.0367 100.041 23.9648C98.9521 22.893 98.3818 21.5149 98.3818 19.7284V11.5618H95.6855V10.8472L102.53 3.65039Z" fill="white"/>
<path d="M113.152 8.51465L117.558 17.6564L122.019 8.51465H127.317L114.434 34.0608H109.192L115.104 22.3797L107.854 8.51465H113.152Z" fill="white"/>
<path d="M58.1311 7.30078C60.6909 7.30078 62.7284 8.14703 64.2434 9.78664C65.7584 11.4263 66.4898 13.7534 66.4898 16.6624V17.35H54.1607C54.3697 18.9367 54.9444 20.1532 55.8847 20.9995C56.8773 21.8457 58.1833 22.2688 59.9073 22.2688C61.0044 22.2688 62.0492 22.0573 63.0941 21.687C64.0867 21.3168 65.1837 20.735 66.2286 19.9416V23.3795C64.1911 24.8605 61.6835 25.5481 58.8102 25.5481C56.0414 25.5481 53.795 24.7018 52.0711 23.0093C50.3471 21.3168 49.459 19.0954 49.459 16.2922C49.459 13.5948 50.2426 11.4263 51.8621 9.73375C53.4816 8.04125 55.5713 7.30078 58.1311 7.30078ZM62.1537 14.5997C62.0492 13.3303 61.6313 12.3254 61.0044 11.5849C60.3775 10.8445 59.4894 10.4742 58.3401 10.4742C57.1908 10.4742 56.2504 10.8445 55.5713 11.532C54.8921 12.2196 54.4219 13.2245 54.213 14.5997H62.1537Z" fill="white"/>
<path d="M90.7951 0C91.4832 0 92.0239 0.261744 92.5154 0.785231C93.0069 1.30872 93.2527 1.88455 93.2527 2.61744C93.2527 3.29797 93.0069 3.92616 92.5645 4.44964C92.073 4.97313 91.5324 5.23487 90.8443 5.23487C90.2053 5.23487 89.6155 4.97313 89.124 4.44964C88.6325 3.92616 88.3867 3.29797 88.3867 2.61744C88.3867 1.88455 88.6325 1.25637 89.124 0.785231C89.6155 0.261744 90.1562 0 90.7951 0ZM92.9577 25.5462H88.6325V8.06171H92.9577V25.5462Z" fill="white"/>
</svg>
