<svg width="25" height="25" viewBox="0 0 25 25" xmlns="http://www.w3.org/2000/svg">
<path d="M24.7187 23.3603L19.5292 18.1708C21.3618 15.9883 22.2812 13.1827 22.0956 10.3389C21.9099 7.49506 20.6336 4.83269 18.5328 2.90695C16.432 0.981216 13.6688 -0.0592236 10.8196 0.00260596C7.97032 0.0644355 5.25491 1.22376 3.23961 3.23882C1.22431 5.25388 0.0647105 7.96911 0.00262731 10.8183C-0.0594559 13.6675 0.980771 16.4306 2.90638 18.5315C4.83199 20.6325 7.49433 21.909 10.3382 22.0948C13.1821 22.2807 15.9879 21.3616 18.1706 19.5292L23.3602 24.7187C23.5404 24.8988 23.7847 25 24.0394 25C24.2942 25 24.5385 24.8988 24.7187 24.7187C24.8988 24.5385 25 24.2942 25 24.0395C25 23.7847 24.8988 23.5404 24.7187 23.3603ZM1.94801 11.0726C1.94801 9.26791 2.48319 7.50373 3.48586 6.00317C4.48853 4.50262 5.91366 3.33308 7.58104 2.64244C9.24842 1.95181 11.0832 1.77111 12.8532 2.12319C14.6233 2.47527 16.2492 3.34432 17.5254 4.62044C18.8016 5.89656 19.6706 7.52243 20.0227 9.29246C20.3748 11.0625 20.1941 12.8972 19.5035 14.5645C18.8128 16.2318 17.6432 17.6569 16.1426 18.6596C14.642 19.6622 12.8778 20.1974 11.073 20.1974C8.65377 20.1946 6.33437 19.2324 4.62369 17.5218C2.91301 15.8111 1.95075 13.4918 1.94801 11.0726Z"/>
</svg>
