<svg width="65" height="50" viewBox="0 0 65 50" xmlns="http://www.w3.org/2000/svg">
<path d="M21.7929 0.629633L24.5255 4.85831C18.6573 8.13371 15.0883 11.8784 12.8661 15.5004C10.5868 19.2154 9.74133 22.774 9.26246 25.5002L9.08744 26.4967L9.98531 26.0305C11.8354 25.07 14.2957 24.7199 16.7404 24.9476L16.7406 24.9477C23.0699 25.5353 28.0466 30.743 28.0466 37.2048C28.0466 40.4661 26.7548 43.5936 24.4556 45.8993C22.1571 48.2044 19.0401 49.4994 15.7902 49.5C13.9861 49.4839 12.2032 49.1082 10.5451 48.3948C8.88745 47.6816 7.38759 46.645 6.13278 45.3452C2.4713 41.4441 0.5 37.0832 0.5 29.9335C0.5 17.5104 9.11535 6.29757 21.7929 0.629633ZM58.2463 0.629634L60.9788 4.85831C55.1106 8.13371 51.5417 11.8784 49.3195 15.5004C47.0401 19.2154 46.1947 22.774 45.7158 25.5002L45.5408 26.4967L46.4387 26.0305C48.2887 25.07 50.7491 24.7199 53.1938 24.9476L53.1939 24.9477C59.5233 25.5353 64.5 30.743 64.5 37.2048C64.5 40.4661 63.2081 43.5936 60.909 45.8993C58.6105 48.2044 55.4935 49.4994 52.2435 49.5C50.4395 49.4839 48.6566 49.1082 46.9985 48.3948C45.3408 47.6816 43.8409 46.6449 42.5861 45.3451C38.9246 41.444 36.9534 37.0831 36.9534 29.9335C36.9534 17.5104 45.5687 6.29757 58.2463 0.629634Z"/>
</svg>
