<svg width="25" height="15" viewBox="0 0 25 15" xmlns="http://www.w3.org/2000/svg">
<path fill-rule="evenodd" clip-rule="evenodd" d="M12.311 14.8233H13.7258C13.7258 14.8233 14.1502 14.7494 14.3624 14.5277C14.5746 14.306 14.5746 13.8627 14.5746 13.8627C14.5746 13.8627 14.5746 11.9415 15.4235 11.6459C16.2723 11.3503 17.4041 13.5671 18.5359 14.3799C19.3848 15.0449 20.0214 14.8971 20.0214 14.8971L23.1339 14.8233C23.1339 14.8233 24.7608 14.7494 23.9827 13.3454C23.912 13.2715 23.5583 12.3848 21.6484 10.5375C19.6677 8.61636 19.9507 8.98582 22.285 5.6607C23.6998 3.66563 24.2657 2.48336 24.1242 1.89223C23.9827 1.37499 22.9217 1.52277 22.9217 1.52277H19.3848C19.3848 1.52277 19.1018 1.44888 18.9604 1.59666C18.7481 1.74445 18.6774 1.96612 18.6774 1.96612C18.6774 1.96612 18.1115 3.51784 17.4041 4.84789C15.8479 7.58188 15.2113 7.72966 14.999 7.58188C14.4331 7.21242 14.5746 5.95626 14.5746 5.14346C14.5746 2.48336 14.999 1.37499 13.7965 1.07942C13.4428 1.00553 13.1599 0.931641 12.1695 0.931641C10.8963 0.931641 9.8352 0.93164 9.2693 1.22721C8.84487 1.44888 8.56192 1.89223 8.77413 1.89223C8.98635 1.89223 9.55225 2.04001 9.8352 2.40947C10.1181 3.0745 10.1181 4.18287 10.1181 4.18287C10.1181 4.18287 10.3304 7.3602 9.62298 7.72966C9.12782 8.02523 8.49118 7.4341 7.07643 4.92178C6.36905 3.66563 5.80315 2.1878 5.80315 2.1878C5.80315 2.1878 5.73241 1.89223 5.5202 1.74445C5.30799 1.59666 4.9543 1.52277 4.9543 1.52277H1.62963C1.62963 1.52277 1.13447 1.52277 0.922253 1.74445C0.780778 1.96612 0.922253 2.33558 0.922253 2.33558C0.922253 2.33558 3.53955 8.69025 6.51053 11.9415C9.2693 15.0449 12.311 14.8233 12.311 14.8233Z"/>
</svg>
