<svg width="1616" height="230" viewBox="0 0 1616 230" fill="none" xmlns="http://www.w3.org/2000/svg">
<path d="M143.548 0.181811V30.0312H34.9233V230H0.24858V0.181811H143.548ZM174.885 230H138.078L220.781 0.181811H260.842L343.545 230H306.738L241.765 41.9261H239.97L174.885 230ZM181.056 140.003H300.454V169.179H181.056V140.003ZM376.733 230V0.181811H458.651C476.53 0.181811 491.343 3.43607 503.088 9.94459C514.833 16.4531 523.624 25.3556 529.459 36.652C535.294 47.8736 538.212 60.5166 538.212 74.581C538.212 88.7202 535.257 101.438 529.347 112.734C523.511 123.956 514.684 132.858 502.864 139.442C491.118 145.95 476.343 149.205 458.538 149.205H402.206V119.804H455.396C466.693 119.804 475.857 117.859 482.889 113.969C489.921 110.004 495.083 104.617 498.375 97.8097C501.667 91.0019 503.312 83.259 503.312 74.581C503.312 65.9029 501.667 58.1974 498.375 51.4645C495.083 44.7315 489.884 39.4574 482.777 35.642C475.745 31.8267 466.468 29.919 454.947 29.919H411.408V230H376.733ZM573.896 230H537.089L619.793 0.181811H659.854L742.557 230H705.75L640.777 41.9261H638.982L573.896 230ZM580.068 140.003H699.466V169.179H580.068V140.003ZM775.745 230V0.181811H810.419V100.054H924.992V0.181811H959.779V230H924.992V129.791H810.419V230H775.745ZM998.942 30.0312V0.181811H1176.8V30.0312H1105.1V230H1070.54V30.0312H998.942ZM1216.11 0.181811H1250.45V168.955H1252.58L1369.51 0.181811H1401.6V230H1366.93V61.4517H1364.79L1248.09 230H1216.11V0.181811ZM1615.12 230H1580.33V29.919H1536.79C1525.42 29.919 1516.18 31.6397 1509.08 35.081C1501.97 38.4474 1496.77 43.3101 1493.48 49.669C1490.19 56.0279 1488.54 63.5464 1488.54 72.2244C1488.54 80.8276 1490.19 88.1965 1493.48 94.331C1496.77 100.465 1501.93 105.141 1508.96 108.358C1516 111.575 1525.16 113.183 1536.46 113.183H1595.37V143.033H1533.2C1515.47 143.033 1500.7 140.078 1488.88 134.168C1477.13 128.258 1468.3 119.991 1462.39 109.368C1456.56 98.67 1453.64 86.2888 1453.64 72.2244C1453.64 58.0852 1456.56 45.6293 1462.39 34.8565C1468.23 24.009 1477.02 15.518 1488.76 9.38351C1500.58 3.24905 1515.36 0.181811 1533.09 0.181811H1615.12V230ZM1501.67 126.312H1540.05L1484.28 230H1444.89L1501.67 126.312Z" fill="#F2F2F2"/>
</svg>
