<svg width="37" height="36" viewBox="0 0 37 36" fill="none" xmlns="http://www.w3.org/2000/svg">
<path d="M33.4093 8.31192C28.0241 -0.000274771 17.0294 -2.47147 8.50289 2.69557C0.200769 7.86261 -2.49181 19.0953 2.89335 27.4075L3.34211 28.0815L1.54706 34.8211L8.27851 33.0238L8.95166 33.4731C11.8686 35.0457 15.01 35.9443 18.1513 35.9443C21.517 35.9443 24.8828 35.0457 27.7997 33.2485C36.1018 27.8568 38.57 16.8488 33.4093 8.31192ZM28.6972 25.6103C27.7997 26.9582 26.6778 27.8568 25.1071 28.0815C24.2096 28.0815 23.0877 28.5308 18.6001 26.7335C14.7856 24.9363 11.6442 22.0158 9.40042 18.646C8.05413 17.0734 7.38098 15.0515 7.1566 13.0296C7.1566 11.2324 7.82975 9.65984 8.95166 8.53657C9.40042 8.08726 9.84918 7.86261 10.2979 7.86261H11.4199C11.8686 7.86261 12.3174 7.86261 12.5418 8.76122C12.9905 9.88449 14.1124 12.5803 14.1124 12.805C14.3368 13.0296 14.3368 13.479 14.1124 13.7036C14.3368 14.1529 14.1124 14.6022 13.8881 14.8269C13.6637 15.0515 13.4393 15.5008 13.2149 15.7255C12.7661 15.9501 12.5418 16.3995 12.7661 16.8488C13.6637 18.1967 14.7856 19.5446 15.9075 20.6679C17.2538 21.7911 18.6001 22.6898 20.1707 23.3637C20.6195 23.5884 21.0683 23.5884 21.2926 23.1391C21.517 22.6898 22.6389 21.5665 23.0877 21.1172C23.5365 20.6679 23.7608 20.6679 24.2096 20.8925L27.7997 22.6898C28.2485 22.9144 28.6972 23.1391 28.9216 23.3637C29.146 24.0377 29.146 24.9363 28.6972 25.6103Z" fill="#76C5FA"/>
</svg>
