<svg width="24" height="24" viewBox="0 0 24 24" xmlns="http://www.w3.org/2000/svg">
<path d="M21.9103 5.40784C18.4121 -0.00017877 11.2699 -1.60797 5.73099 1.75377C0.337882 5.11551 -1.41123 12.4236 2.087 17.8316L2.37852 18.2701L1.21244 22.655L5.58523 21.4857L6.02251 21.778C7.91739 22.8012 9.95803 23.3858 11.9987 23.3858C14.1851 23.3858 16.3715 22.8012 18.2663 21.6319C23.6594 18.124 25.2628 10.962 21.9103 5.40784ZM18.8494 16.6623C18.2663 17.5393 17.5375 18.124 16.5172 18.2701C15.9342 18.2701 15.2054 18.5625 12.2902 17.3932C9.81227 16.2239 7.77163 14.3238 6.31403 12.1313C5.43947 11.1082 5.00219 9.79271 4.85643 8.47725C4.85643 7.30795 5.29371 6.28481 6.02251 5.554C6.31403 5.26167 6.60555 5.11551 6.89707 5.11551H7.62587C7.91739 5.11551 8.20891 5.11551 8.35467 5.70016C8.64619 6.43097 9.37499 8.18492 9.37499 8.33109C9.52075 8.47725 9.52075 8.76957 9.37499 8.91574C9.52075 9.20806 9.37499 9.50039 9.22923 9.64655C9.08347 9.79271 8.93771 10.085 8.79195 10.2312C8.50043 10.3774 8.35467 10.6697 8.50043 10.962C9.08347 11.839 9.81227 12.716 10.5411 13.4468C11.4156 14.1776 12.2902 14.7622 13.3105 15.2007C13.602 15.3469 13.8935 15.3469 14.0393 15.0546C14.1851 14.7622 14.9139 14.0314 15.2054 13.7391C15.4969 13.4468 15.6427 13.4468 15.9342 13.5929L18.2663 14.7622C18.5579 14.9084 18.8494 15.0546 18.9951 15.2007C19.1409 15.6392 19.1409 16.2239 18.8494 16.6623Z"/>
</svg>
